{"glyphs":{"0":{"ha":833,"x_min":0,"x_max":0,"o":"m 418 944 b 269 917 364 944 315 935 b 151 835 224 899 185 871 b 29 463 71 749 29 624 b 169 75 29 292 76 163 b 415 -18 235 13 317 -18 b 676 82 521 -18 608 15 b 772 238 718 124 750 175 b 804 449 794 300 804 371 b 774 672 804 533 794 608 b 678 835 753 736 721 789 b 418 944 608 907 522 944 z m 419 731 b 503 682 454 731 482 715 b 532 593 515 663 525 632 b 543 456 539 554 543 507 b 513 258 543 367 532 300 b 419 194 493 217 463 194 b 322 260 375 194 343 217 b 292 464 301 303 292 372 b 322 667 292 556 301 624 b 419 731 343 710 375 731 z "},"1":{"ha":833,"x_min":0,"x_max":0,"o":"m 596 926 l 344 926 l 182 704 l 344 704 l 344 0 l 596 0 z "},"2":{"ha":835,"x_min":0,"x_max":0,"o":"m 96 926 l 96 706 l 376 706 b 458 688 417 706 444 700 b 479 638 472 676 479 658 b 457 588 479 615 472 599 b 390 569 442 576 419 569 l 286 569 b 190 556 247 569 214 565 b 129 507 167 546 146 529 b 101 456 117 492 107 474 b 94 389 96 438 94 415 b 96 350 94 382 94 369 l 396 350 b 535 363 451 350 497 354 b 607 394 560 368 583 379 b 671 449 631 410 651 428 b 742 636 718 501 742 564 b 722 743 742 674 735 710 b 667 832 710 776 690 807 b 558 904 636 865 600 890 b 397 926 517 918 464 926 z m 706 219 l 96 219 l 96 0 l 706 0 z "},"3":{"ha":833,"x_min":0,"x_max":0,"o":"m 319 569 l 169 350 l 375 350 b 454 335 411 350 438 344 b 478 285 471 325 478 308 b 461 238 478 267 472 250 b 438 224 454 229 447 226 b 389 219 428 221 411 219 l 93 219 l 93 0 l 419 0 b 572 25 479 0 531 8 b 676 104 614 42 647 68 b 740 292 718 156 740 219 b 658 489 740 372 713 439 b 413 569 600 543 518 569 z m 722 926 l 93 926 l 93 706 l 567 706 z "},"4":{"ha":833,"x_min":0,"x_max":0,"o":"m 628 926 l 353 926 l 65 350 l 757 350 l 757 569 l 453 569 z m 674 219 l 353 219 l 353 0 l 674 0 z "},"5":{"ha":833,"x_min":0,"x_max":0,"o":"m 114 569 l 114 350 l 382 350 b 454 335 414 350 439 344 b 476 286 469 325 476 308 b 453 238 476 265 469 249 b 383 219 436 226 413 219 l 114 219 l 114 0 l 407 0 b 557 21 467 0 517 7 b 663 89 597 35 633 58 b 718 179 686 115 704 144 b 739 286 732 214 739 250 b 719 390 739 322 732 357 b 665 476 707 424 689 451 b 557 547 636 508 600 532 b 397 569 514 563 460 569 z m 686 926 l 114 926 l 114 706 l 686 706 z "},"6":{"ha":833,"x_min":0,"x_max":0,"o":"m 610 926 l 318 926 l 132 597 b 65 453 101 542 78 494 b 46 326 53 411 46 369 b 69 199 46 282 54 239 b 136 90 85 158 107 121 b 258 10 169 54 210 28 b 418 -18 307 -8 360 -18 b 596 18 485 -18 543 -6 b 725 121 649 42 692 75 b 788 322 767 178 788 244 b 774 432 788 361 783 397 b 718 569 764 467 746 513 l 432 569 b 510 426 469 510 496 463 b 531 321 524 390 531 354 b 499 231 531 285 521 254 b 418 194 476 207 450 194 b 340 226 389 194 363 206 b 303 319 315 250 303 281 b 317 392 303 343 307 367 b 365 492 326 417 342 450 z "},"7":{"ha":833,"x_min":0,"x_max":0,"o":"m 618 569 l 361 569 l 169 0 l 435 0 z m 735 926 l 99 926 l 99 706 l 664 706 z "},"8":{"ha":833,"x_min":0,"x_max":0,"o":"m 663 482 b 736 550 697 510 721 532 b 783 686 768 590 783 636 b 763 782 783 719 776 751 b 701 863 749 813 728 840 b 422 944 638 917 544 944 b 135 868 296 944 200 919 b 69 786 106 846 85 818 b 46 686 54 754 46 721 b 86 558 46 639 60 597 b 165 482 101 536 128 511 b 107 433 140 463 121 446 b 71 392 93 421 81 407 b 29 254 43 353 29 307 b 110 71 29 179 56 118 b 236 4 144 40 188 19 b 411 -18 285 -11 344 -18 b 579 1 475 -18 531 -11 b 704 60 628 14 669 33 b 804 260 771 110 804 176 b 760 399 804 311 789 358 b 724 439 750 413 738 426 b 663 482 710 451 689 465 z m 429 474 b 507 404 467 444 493 422 b 547 308 533 372 547 340 b 511 226 547 275 536 247 b 415 194 486 206 454 194 b 322 226 376 194 346 206 b 286 307 299 247 286 274 b 296 354 286 324 290 340 b 325 401 301 368 311 385 b 403 474 339 418 365 443 b 324 560 364 510 338 539 b 303 628 310 581 303 604 b 335 703 303 658 314 683 b 417 731 356 722 383 731 b 494 703 450 731 475 721 b 526 629 517 682 526 657 b 506 560 526 606 519 582 b 429 474 492 538 465 508 z "},"9":{"ha":833,"x_min":0,"x_max":0,"o":"m 229 0 l 519 0 l 711 347 b 771 481 740 399 760 443 b 788 597 782 518 788 557 b 765 728 788 644 781 688 b 697 836 750 768 726 806 b 574 915 665 871 624 896 b 411 944 524 935 469 944 b 257 917 356 944 304 935 b 135 836 210 899 168 871 b 44 600 75 774 44 694 b 60 486 44 560 50 521 b 118 347 69 451 89 404 l 403 347 b 324 497 363 414 336 464 b 301 600 310 535 301 569 b 333 694 301 639 313 669 b 415 731 354 719 382 731 b 486 706 443 731 467 722 b 519 661 500 694 511 679 b 531 603 528 643 531 624 b 517 528 531 581 526 554 b 468 428 507 501 490 468 z "}," ":{"ha":347,"x_min":0,"x_max":0,"o":""},"!":{"ha":422,"x_min":0,"x_max":0,"o":"m 325 926 l 111 926 l 111 351 l 304 351 z m 315 219 l 97 219 l 97 0 l 315 0 z "},"\"":{"ha":613,"x_min":0,"x_max":0,"o":"m 242 557 l 275 926 l 46 926 l 79 557 z m 535 557 l 567 926 l 339 926 l 371 557 z "},"#":{"ha":833,"x_min":0,"x_max":0,"o":"m 781 394 l 653 394 l 675 532 l 797 532 l 822 688 l 699 688 l 738 926 l 557 926 l 521 688 l 386 688 l 424 926 l 246 926 l 208 688 l 82 688 l 57 532 l 183 532 l 163 394 l 36 394 l 11 239 l 138 239 l 100 0 l 278 0 l 315 239 l 449 239 l 411 0 l 590 0 l 629 239 l 756 239 z m 494 532 l 474 394 l 340 394 l 361 532 z "},"$":{"ha":835,"x_min":0,"x_max":0,"o":"m 114 224 l 114 3 l 306 3 l 306 -37 l 529 -37 l 529 14 b 622 51 569 26 600 38 b 685 107 644 65 665 83 b 749 290 728 158 749 219 b 697 451 749 350 731 404 b 593 539 669 490 635 519 b 451 569 551 558 504 569 l 86 569 b 108 500 93 540 101 517 b 193 397 125 460 153 426 b 356 347 239 364 293 347 l 414 346 b 467 331 435 346 453 342 b 486 289 481 319 486 306 b 464 240 486 268 479 251 b 401 224 449 229 429 224 z m 693 926 l 538 926 l 538 963 l 314 963 l 314 926 b 222 894 275 917 244 906 b 158 846 200 883 178 867 b 117 790 140 828 126 810 b 86 706 107 771 96 742 l 693 706 z "},"%":{"ha":1278,"x_min":0,"x_max":0,"o":"m 261 936 b 83 861 186 936 126 911 b 18 657 40 811 18 743 b 83 453 18 571 40 503 b 260 378 126 403 186 378 b 421 436 325 378 379 397 b 501 656 475 485 501 558 b 422 874 501 750 475 822 b 261 936 379 915 325 936 z m 261 811 b 311 772 283 811 300 799 b 328 653 322 746 328 707 b 311 539 328 601 322 563 b 261 503 300 515 285 503 b 208 540 238 503 219 515 b 192 657 197 565 192 604 b 208 775 192 710 197 750 b 261 811 219 800 238 811 z m 693 926 l 422 0 l 594 0 l 865 926 z m 1019 549 b 843 474 944 549 886 524 b 778 268 800 424 778 354 b 843 64 778 182 800 114 b 1018 -11 886 14 944 -11 b 1181 47 1083 -11 1139 8 b 1260 267 1233 96 1260 169 b 1182 485 1260 361 1235 433 b 1019 549 1139 526 1083 549 z m 1021 424 b 1071 383 1043 424 1060 410 b 1086 264 1082 357 1086 317 b 1071 150 1086 213 1082 174 b 1019 114 1060 126 1043 114 b 968 151 996 114 979 126 b 951 268 957 176 951 215 b 968 386 951 321 957 361 b 1021 424 979 411 997 424 z "},"&":{"ha":654,"x_min":0,"x_max":0,"o":"m 594 347 l 432 601 b 410 639 419 621 413 633 b 406 660 407 644 406 651 b 419 690 406 671 410 682 b 468 703 429 699 444 703 l 576 703 l 576 926 l 408 926 b 306 914 367 926 333 922 b 235 874 278 906 254 892 b 188 806 214 856 199 832 b 171 725 176 779 171 753 b 203 613 171 686 181 649 b 261 546 214 594 235 572 b 147 517 213 539 174 529 b 75 461 121 504 97 486 b 10 272 31 413 10 349 b 83 82 10 193 35 129 b 192 19 113 54 149 33 b 351 0 235 6 289 0 l 628 0 l 628 219 l 338 219 b 271 233 306 219 283 224 b 250 281 257 244 250 260 b 267 325 250 299 256 313 b 342 347 281 340 306 347 z "},"'":{"ha":321,"x_min":0,"x_max":0,"o":"m 242 557 l 275 926 l 46 926 l 79 557 z "},"(":{"ha":393,"x_min":0,"x_max":0,"o":"m 375 1028 b 289 1010 338 1022 310 1017 b 161 924 240 993 197 964 b 97 822 135 894 114 861 b 57 682 81 783 67 738 b 38 454 44 615 38 540 b 57 225 38 368 44 292 b 97 85 67 169 81 124 b 161 -17 114 46 135 13 b 289 -101 197 -57 240 -85 b 375 -119 310 -108 338 -114 l 375 82 b 324 111 353 90 335 100 b 293 157 313 122 301 138 b 269 265 282 183 275 219 b 261 454 264 311 261 374 b 269 643 261 535 264 597 b 293 751 275 689 282 725 b 324 797 301 771 313 786 b 375 826 335 808 353 818 z "},")":{"ha":393,"x_min":0,"x_max":0,"o":"m 18 -119 b 106 -101 56 -114 85 -108 b 232 -17 154 -85 196 -57 b 296 85 258 13 279 46 b 338 225 313 124 328 169 b 356 454 350 292 356 368 b 338 682 356 540 350 615 b 296 822 328 738 313 783 b 232 924 279 861 258 894 b 106 1010 196 964 154 993 b 18 1028 85 1017 56 1022 l 18 826 b 69 797 40 818 58 808 b 100 751 81 786 92 771 b 124 643 111 725 118 689 b 132 454 129 597 132 535 b 124 264 132 374 129 310 b 100 157 118 218 111 183 b 69 111 92 138 81 122 b 18 82 58 100 40 90 z "},"*":{"ha":674,"x_min":0,"x_max":0,"o":"m 419 926 l 264 926 l 264 760 l 107 813 l 54 663 l 213 611 l 107 476 l 239 383 l 343 521 l 440 383 l 569 476 l 469 611 l 621 663 l 574 813 l 419 760 z "},"+":{"ha":833,"x_min":0,"x_max":0,"o":"m 106 572 l 106 351 l 296 351 l 296 150 l 538 150 l 538 351 l 728 351 l 728 572 l 538 572 l 538 774 l 296 774 l 296 572 z "},",":{"ha":411,"x_min":0,"x_max":0,"o":"m 315 149 l 97 149 l 97 -175 l 204 -175 z "},"-":{"ha":546,"x_min":0,"x_max":0,"o":"m 547 522 l 0 522 l 0 303 l 547 303 z "},".":{"ha":411,"x_min":0,"x_max":0,"o":"m 315 219 l 97 219 l 97 0 l 315 0 z "},"/":{"ha":454,"x_min":0,"x_max":0,"o":"m 231 1010 l 14 -101 l 224 -101 l 440 1010 z "},":":{"ha":411,"x_min":0,"x_max":0,"o":"m 315 219 l 97 219 l 97 0 l 315 0 z m 315 561 l 97 561 l 97 342 l 315 342 z "},";":{"ha":411,"x_min":0,"x_max":0,"o":"m 315 149 l 97 149 l 97 -175 l 204 -175 z m 315 561 l 97 561 l 97 342 l 315 342 z "},"<":{"ha":601,"x_min":0,"x_max":0,"o":"m 601 882 l 0 561 l 0 376 l 601 56 l 601 275 l 235 468 l 601 661 z "},"=":{"ha":833,"x_min":0,"x_max":0,"o":"m 106 721 l 106 500 l 728 500 l 728 721 z m 106 422 l 106 203 l 728 203 l 728 422 z "},">":{"ha":601,"x_min":0,"x_max":0,"o":"m 0 56 l 601 376 l 601 561 l 0 882 l 0 663 l 367 469 l 0 276 z "},"?":{"ha":661,"x_min":0,"x_max":0,"o":"m 429 347 l 525 551 b 556 629 539 581 550 608 b 564 692 561 650 564 671 b 514 833 564 744 547 792 b 415 903 488 864 456 888 b 268 926 375 918 325 926 l 69 926 l 69 703 l 231 703 b 279 700 253 703 268 701 b 304 689 290 699 297 694 b 324 647 317 678 324 664 b 308 596 324 636 318 619 l 194 347 z m 419 219 l 203 219 l 203 0 l 419 0 z "},"@":{"ha":1015,"x_min":0,"x_max":0,"o":"m 710 664 l 564 664 b 461 650 528 664 493 660 b 379 613 429 640 401 628 b 313 529 351 592 329 564 b 289 418 296 494 289 457 b 326 304 289 371 301 333 b 376 263 339 289 356 275 b 440 236 397 250 418 242 b 601 219 490 225 543 219 b 753 233 660 219 710 224 b 864 281 796 243 832 260 b 964 392 907 310 940 346 b 1000 539 988 438 1000 486 b 969 689 1000 590 990 640 b 882 819 949 738 919 782 b 726 917 839 863 788 894 b 528 951 665 939 600 951 b 315 907 454 951 383 936 b 143 782 247 878 190 835 b 51 629 103 738 74 686 b 18 456 29 572 18 515 b 51 281 18 396 29 338 b 144 131 74 224 104 174 b 539 -25 239 26 371 -25 b 689 -14 590 -25 640 -21 b 822 18 738 -7 782 4 l 790 143 b 540 100 708 114 625 100 b 371 128 474 100 418 108 b 249 218 324 147 282 176 b 188 326 222 250 201 286 b 167 453 174 367 167 410 b 189 585 167 499 174 542 b 257 699 204 628 228 665 b 382 793 293 740 333 771 b 542 826 431 815 485 826 b 681 801 592 826 638 818 b 789 732 724 785 760 761 b 867 528 840 679 867 611 b 853 440 867 497 861 467 b 817 376 844 414 832 393 b 764 339 803 361 786 347 b 694 325 742 331 718 325 l 650 325 l 679 493 l 558 493 l 529 325 b 443 350 492 325 463 333 b 413 422 424 367 413 392 b 426 478 413 440 418 458 b 461 525 435 497 447 513 b 504 550 474 536 488 544 b 569 557 521 556 543 557 l 692 557 z "},"A":{"ha":833,"x_min":0,"x_max":0,"o":"m 279 925 l 608 0 l 865 0 l 553 925 z m 165 567 l -21 0 l 242 0 l 394 567 z "},"B":{"ha":757,"x_min":0,"x_max":0,"o":"m 56 926 l 56 706 l 372 706 b 436 690 401 706 422 700 b 458 643 450 681 458 664 b 442 599 458 625 451 611 b 411 579 435 590 425 583 b 357 575 397 575 379 575 l 56 575 l 56 354 l 357 354 b 428 336 392 354 415 349 b 446 289 439 324 446 308 b 426 239 446 269 439 253 b 357 219 414 226 390 219 l 56 219 l 56 0 l 394 0 b 504 4 438 0 474 1 b 592 28 535 7 564 15 b 661 76 619 40 642 57 b 713 158 683 99 700 126 b 731 257 725 190 731 224 b 678 410 731 319 713 369 b 640 443 667 424 653 435 b 590 468 628 451 611 460 b 651 508 617 482 636 494 b 690 557 667 522 681 539 b 719 681 710 592 719 633 b 697 788 719 719 711 754 b 638 868 683 821 664 847 b 497 921 599 899 551 917 b 361 926 461 924 417 926 z "},"C":{"ha":685,"x_min":0,"x_max":0,"o":"m 658 926 l 543 926 b 346 900 469 926 403 917 b 224 839 303 888 263 868 b 124 736 185 810 151 776 b 60 604 96 697 75 653 b 38 460 44 556 38 508 b 58 318 38 411 44 365 b 121 190 72 271 93 229 b 290 47 165 126 222 78 b 533 0 358 17 439 0 l 658 0 l 658 219 l 575 219 b 442 240 521 219 476 226 b 351 310 407 254 378 278 b 299 461 317 354 299 404 b 354 619 299 522 318 574 b 440 686 379 650 407 672 b 564 706 474 700 514 706 l 658 706 z "},"D":{"ha":886,"x_min":0,"x_max":0,"o":"m 56 926 l 56 706 l 307 706 b 432 690 358 706 400 700 b 515 639 464 681 490 664 b 568 558 538 617 556 590 b 588 463 581 526 588 494 b 568 368 588 431 581 400 b 517 288 556 336 539 310 b 429 235 492 264 463 246 b 308 218 396 224 356 218 l 308 569 l 56 569 l 56 0 l 349 0 b 554 29 428 0 496 10 b 664 89 592 42 628 63 b 758 183 700 115 731 147 b 850 461 819 265 850 358 b 804 667 850 533 835 601 b 676 829 774 732 731 786 b 538 901 636 861 590 885 b 360 926 485 918 426 926 z "},"E":{"ha":733,"x_min":0,"x_max":0,"o":"m 679 569 l 56 569 l 56 0 l 679 0 l 679 219 l 308 219 l 308 350 l 679 350 z m 679 926 l 56 926 l 56 706 l 679 706 z "},"F":{"ha":708,"x_min":0,"x_max":0,"o":"m 681 569 l 56 569 l 56 0 l 308 0 l 308 350 l 681 350 z m 681 926 l 56 926 l 56 706 l 681 706 z "},"G":{"ha":832,"x_min":0,"x_max":0,"o":"m 832 567 l 832 58 z m 832 347 l 776 347 z m 832 347 l 832 567 z m 776 926 l 583 926 b 349 899 492 926 413 917 b 240 846 311 888 276 871 b 143 757 204 821 172 790 b 64 618 108 715 82 669 b 36 458 46 567 36 514 b 74 268 36 393 49 329 b 181 113 99 207 135 156 b 333 15 225 69 275 38 b 521 -18 392 -7 454 -18 b 718 0 617 -18 683 -12 b 832 58 764 15 801 35 l 832 347 b 769 276 813 319 792 296 b 711 231 747 257 729 242 b 557 194 672 206 621 194 b 393 250 493 194 439 214 b 324 339 364 274 340 303 b 299 456 307 375 299 414 b 314 547 299 488 304 518 b 358 626 324 576 339 604 b 443 688 382 654 410 675 b 569 706 476 700 519 706 l 776 706 z m 832 567 l 496 567 l 496 347 l 832 347 z "},"H":{"ha":632,"x_min":0,"x_max":0,"o":"m 0 924 l 0 0 l 253 0 l 253 347 l 378 347 l 378 0 l 632 0 l 632 924 l 378 924 l 378 567 l 253 567 l 253 924 z "},"I":{"ha":363,"x_min":0,"x_max":0,"o":"m 308 569 l 56 569 l 56 0 l 308 0 z m 308 926 l 56 926 l 56 706 l 308 706 z "},"J":{"ha":496,"x_min":0,"x_max":0,"o":"m 440 569 l 188 569 l 188 333 b 183 276 188 308 186 289 b 165 244 181 264 174 254 b 101 222 151 231 129 222 l -11 222 l -11 0 l 168 0 b 353 63 244 0 306 21 b 404 125 374 81 390 101 b 431 197 418 149 426 172 b 440 356 438 236 440 289 z m 440 926 l 188 926 l 188 706 l 440 706 z "},"K":{"ha":632,"x_min":0,"x_max":0,"o":"m 0 0 l 253 0 l 253 289 l 378 0 l 633 0 l 443 492 l 633 924 l 378 924 l 251 661 l 253 924 l 0 924 z "},"L":{"ha":615,"x_min":0,"x_max":0,"o":"m 308 926 l 56 926 l 56 0 l 625 0 l 625 219 l 308 219 z "},"M":{"ha":1119,"x_min":0,"x_max":0,"o":"m 56 926 l 56 0 l 308 0 l 308 706 l 703 706 b 756 701 725 706 742 704 b 789 683 769 699 781 692 b 807 651 799 675 804 664 b 813 594 810 639 813 619 l 813 0 l 1065 0 l 1065 606 b 1051 742 1065 661 1061 706 b 1007 833 1042 778 1028 807 b 893 910 975 874 936 900 b 713 926 849 921 789 926 z m 678 569 l 443 569 l 443 0 l 678 0 z "},"N":{"ha":839,"x_min":0,"x_max":0,"o":"m 56 926 l 56 0 l 308 0 l 308 706 l 431 706 b 515 681 474 706 501 697 b 532 611 526 667 532 643 l 532 0 l 785 0 l 785 624 b 768 754 785 675 779 718 b 717 844 757 790 740 821 b 610 908 686 876 650 899 b 457 926 565 919 515 926 z "},"O":{"ha":1026,"x_min":0,"x_max":0,"o":"m 513 944 b 192 825 388 944 281 904 b 78 664 143 781 104 728 b 38 460 51 600 38 532 b 150 142 38 335 75 229 b 313 22 196 89 250 49 b 521 -18 375 -4 444 -18 b 726 24 597 -18 665 -4 b 883 146 788 51 839 92 b 963 289 918 188 944 235 b 990 458 981 343 990 400 b 944 683 990 543 975 617 b 813 847 914 750 871 804 b 672 919 771 878 725 903 b 513 944 619 936 567 944 z m 513 731 b 671 658 579 731 632 707 b 728 463 710 610 728 544 b 672 265 728 378 710 313 b 515 194 635 218 582 194 b 369 251 454 194 406 214 b 318 342 347 275 331 304 b 299 464 306 379 299 419 b 356 660 299 547 318 613 b 513 731 393 707 446 731 z "},"P":{"ha":743,"x_min":0,"x_max":0,"o":"m 56 926 l 56 706 l 344 706 b 429 690 385 706 413 700 b 454 639 446 681 454 663 b 428 585 454 615 446 597 b 397 574 419 579 410 576 b 342 569 385 571 365 569 l 56 569 l 56 0 l 308 0 l 308 350 l 389 350 b 535 369 449 350 497 357 b 638 436 572 382 607 404 b 696 528 663 463 682 493 b 717 636 710 563 717 599 b 694 746 717 674 708 710 b 636 839 681 782 661 813 b 531 906 606 871 571 893 b 369 926 490 918 436 926 z "},"Q":{"ha":963,"x_min":0,"x_max":0,"o":"m 513 231 l 801 231 b 878 328 838 269 863 301 b 935 526 915 390 935 457 b 910 664 935 572 926 618 b 838 788 893 710 868 750 b 681 904 794 838 742 878 b 476 944 619 931 550 944 b 279 906 404 944 339 931 b 128 794 219 881 169 843 b 54 667 96 757 72 714 b 28 519 36 619 28 569 b 43 400 28 475 33 435 b 194 165 65 324 115 246 l 356 0 l 699 0 l 401 311 b 314 428 363 351 333 390 b 285 536 294 465 285 503 b 299 607 285 561 289 583 b 340 669 308 631 322 651 b 479 731 378 710 424 731 b 618 672 533 731 581 711 b 674 529 656 633 674 586 b 663 456 674 504 671 479 b 625 376 654 432 642 406 b 513 231 606 343 568 294 z "},"R":{"ha":717,"x_min":0,"x_max":0,"o":"m 28 926 l 28 706 l 339 706 b 407 689 372 706 394 700 b 428 638 421 676 428 658 b 413 593 428 621 422 606 b 383 575 406 585 396 579 b 328 569 371 571 353 569 l 28 569 l 28 350 l 244 350 b 325 342 278 350 304 347 b 371 314 346 336 361 326 b 396 219 388 294 396 264 l 396 0 l 649 0 l 649 246 b 614 382 649 303 638 349 b 569 424 601 400 586 414 b 496 449 553 433 528 442 b 588 481 535 457 565 468 b 644 532 610 493 628 510 b 690 679 674 572 690 621 b 675 765 690 710 685 738 b 635 838 665 793 651 817 b 572 889 618 858 597 875 b 493 915 547 903 521 911 b 347 926 451 922 404 926 z "},"S":{"ha":644,"x_min":0,"x_max":0,"o":"m 326 926 l 65 926 b 56 839 58 890 56 861 b 78 740 56 810 64 776 b 118 671 86 719 100 696 b 197 572 136 646 163 613 b 338 403 272 488 318 431 b 365 319 357 375 365 346 b 340 256 365 296 357 275 b 236 219 319 232 285 219 l 10 219 l 10 0 l 265 0 b 553 110 394 0 490 36 b 608 206 576 138 596 169 b 628 318 621 242 628 279 b 617 404 628 349 624 378 b 579 492 610 431 596 461 b 522 575 565 518 546 546 b 397 724 499 604 457 656 b 335 806 368 757 346 785 b 318 867 324 826 318 847 b 326 926 318 881 321 901 z "},"T":{"ha":663,"x_min":0,"x_max":0,"o":"m 333 569 l 81 569 l 81 326 b 96 179 81 269 86 221 b 157 72 106 139 126 104 b 244 17 182 47 210 28 b 369 0 279 6 321 0 l 607 0 l 607 222 l 442 222 b 381 229 414 222 393 225 b 349 251 368 233 357 240 b 333 339 339 267 333 296 z m 635 926 l 38 926 l 38 706 l 635 706 z "},"U":{"ha":840,"x_min":0,"x_max":0,"o":"m 785 926 l 533 926 l 533 219 l 415 219 b 364 224 393 219 376 221 b 333 238 351 226 342 231 b 314 272 324 246 318 258 b 308 338 310 286 308 308 l 308 926 l 56 926 l 56 308 b 85 136 56 232 65 175 b 138 63 97 108 115 83 b 210 19 160 42 183 28 b 351 0 249 7 296 0 l 785 0 z "},"V":{"ha":835,"x_min":0,"x_max":0,"o":"m 854 922 l 585 926 l 460 493 b 413 267 444 442 429 367 b 367 501 393 379 378 458 l 250 926 l -18 926 l 271 0 l 547 0 z "},"W":{"ha":1108,"x_min":0,"x_max":0,"o":"m 1128 926 l 865 926 l 746 549 l 614 939 l 456 668 l 746 -15 z m 257 926 l -18 926 l 385 -15 l 536 240 z "},"X":{"ha":821,"x_min":0,"x_max":0,"o":"m 793 926 l 765 926 b 724 925 750 926 736 925 b 610 906 685 924 646 918 b 514 857 574 893 542 876 b 457 804 492 840 472 824 b 408 724 442 785 425 758 b 369 792 393 753 381 776 b 85 926 306 878 211 924 l 28 926 l 28 703 b 144 679 76 699 117 690 b 219 625 172 668 197 650 b 267 549 239 603 256 578 b 283 458 278 519 283 489 b 236 313 283 404 268 356 b 169 251 218 288 196 268 b 86 221 143 235 115 225 b 28 218 68 218 49 218 l 28 0 b 100 1 57 0 82 0 b 219 24 142 3 181 11 b 319 75 258 36 292 53 b 367 122 338 89 354 106 b 408 193 379 139 393 164 b 489 85 435 146 461 110 b 589 25 517 60 549 40 b 754 0 633 8 689 0 l 793 0 l 793 218 b 683 236 751 218 715 224 b 600 294 651 249 624 268 b 553 371 579 317 564 342 b 536 460 542 400 536 429 b 558 560 536 494 543 528 b 618 643 574 592 592 621 b 692 686 642 664 667 678 b 793 703 717 694 750 700 z "},"Y":{"ha":790,"x_min":0,"x_max":0,"o":"m 764 926 l 511 926 l 511 703 b 471 576 511 640 497 599 b 394 550 450 560 425 550 b 318 578 364 550 339 560 b 289 622 304 589 294 604 b 281 694 283 640 281 664 l 281 926 l 28 926 l 28 744 b 39 601 28 690 32 643 b 74 503 44 567 56 535 b 142 418 92 471 114 443 b 394 331 207 360 290 331 b 653 424 501 331 589 363 b 717 507 679 447 699 475 b 751 604 735 539 746 572 b 764 765 760 649 764 703 z m 604 219 l 181 219 l 181 0 l 604 0 z "},"Z":{"ha":742,"x_min":0,"x_max":0,"o":"m 557 569 l 281 569 l 28 0 l 707 0 l 707 219 l 403 219 z m 714 926 l 57 926 l 57 706 l 617 706 z "},"[":{"ha":404,"x_min":0,"x_max":0,"o":"m 267 93 l 267 814 l 376 814 l 376 1010 l 56 1010 l 56 -101 l 376 -101 l 376 93 z "},"\\":{"ha":454,"x_min":0,"x_max":0,"o":"m 225 1010 l 15 1010 l 232 -101 l 442 -101 z "},"]":{"ha":410,"x_min":0,"x_max":0,"o":"m 135 814 l 135 93 l 18 93 l 18 -101 l 346 -101 l 346 1010 l 18 1010 l 18 814 z "},"^":{"ha":658,"x_min":0,"x_max":0,"o":"m 196 482 l 329 781 l 463 482 l 660 482 l 453 932 l 206 932 l 0 482 z "},"_":{"ha":694,"x_min":0,"x_max":0,"o":"m 0 -78 l 0 -207 l 694 -207 l 694 -78 z "},"`":{"ha":694,"x_min":0,"x_max":0,"o":"m 167 1186 l 275 990 l 454 990 l 381 1186 z "},"{":{"ha":424,"x_min":0,"x_max":0,"o":"m 207 454 b 243 478 224 463 235 469 b 265 508 251 486 258 496 b 289 629 281 538 289 579 l 289 724 l 289 738 b 300 782 289 760 293 774 b 335 803 308 792 319 799 b 403 810 350 807 372 810 l 403 1010 l 275 1010 b 197 999 244 1010 218 1006 b 140 964 176 992 157 979 b 93 810 108 933 93 882 l 93 656 b 72 578 93 621 86 594 b 18 549 60 563 40 553 l 18 358 b 72 331 40 354 60 346 b 93 253 86 314 93 288 l 93 97 b 140 -57 93 25 108 -26 b 197 -90 157 -72 176 -83 b 275 -101 218 -97 244 -101 l 403 -101 l 403 99 b 335 104 372 99 350 100 b 300 125 319 108 308 115 b 289 169 293 133 289 147 l 289 185 l 289 279 b 265 399 289 329 281 369 b 243 429 258 411 251 421 b 207 454 235 438 224 446 z "},"|":{"ha":224,"x_min":0,"x_max":0,"o":"m 0 926 l 0 -232 l 225 -232 l 225 926 z "},"}":{"ha":522,"x_min":0,"x_max":0,"o":"m 258 454 b 222 429 242 446 231 438 b 200 400 214 421 207 413 b 175 279 185 371 175 329 l 175 185 l 175 168 b 169 121 175 147 174 132 b 146 97 165 110 157 103 b 67 88 135 92 107 88 l 46 88 l 46 -101 l 218 -101 b 353 -57 276 -101 322 -86 b 400 97 385 -26 400 25 l 400 253 b 422 331 400 288 408 314 b 476 360 435 346 453 356 l 476 549 b 422 578 453 553 435 563 b 400 654 408 594 400 619 l 400 810 b 353 964 400 882 385 933 b 296 999 336 979 317 992 b 218 1010 275 1006 249 1010 l 46 1010 l 46 819 l 67 819 b 146 810 107 819 135 815 b 169 788 157 804 165 799 b 175 739 174 776 175 760 l 175 722 l 175 628 b 200 508 175 578 185 538 b 222 478 207 496 214 486 b 258 454 231 469 242 463 z "},"~":{"ha":671,"x_min":0,"x_max":0,"o":"m 108 761 b 153 826 124 792 139 814 b 201 846 167 839 183 846 b 300 815 221 846 253 836 l 360 789 b 454 767 394 774 425 767 b 583 815 506 767 549 783 b 631 871 601 832 618 850 b 672 958 643 892 657 919 l 565 1049 b 519 985 550 1019 535 997 b 468 967 504 972 486 967 b 436 971 457 967 446 968 b 365 1000 426 974 403 985 b 271 1035 325 1017 294 1028 b 213 1044 247 1042 228 1044 b 92 999 165 1044 126 1029 b 0 851 57 968 26 918 z "}," ":{"ha":347,"x_min":0,"x_max":0,"o":""},"¡":{"ha":422,"x_min":0,"x_max":0,"o":"m 111 0 l 325 0 l 325 575 l 131 575 z m 121 706 l 339 706 l 339 926 l 121 926 z "},"¢":{"ha":833,"x_min":0,"x_max":0,"o":"m 671 338 l 582 338 b 488 353 543 338 513 343 b 424 401 463 363 442 379 b 393 490 403 428 393 458 b 424 579 393 522 403 551 b 488 626 442 601 463 617 b 582 642 513 636 543 642 l 671 642 l 671 850 l 568 850 l 568 892 l 350 892 l 350 806 b 272 756 318 789 292 772 b 215 692 253 739 233 718 b 151 490 172 631 151 564 b 215 289 151 417 172 350 b 272 224 233 263 253 240 b 350 174 292 207 318 190 l 350 88 l 568 88 l 568 129 l 671 129 z "},"£":{"ha":833,"x_min":0,"x_max":0,"o":"m 733 926 l 488 926 b 342 911 426 926 379 921 b 246 861 304 901 272 885 b 188 776 221 839 201 811 b 160 644 174 742 165 697 l 132 350 l 643 350 l 643 569 l 408 569 b 417 642 410 603 414 626 b 433 678 419 657 425 668 b 463 700 442 688 450 696 b 515 706 475 704 492 706 l 733 706 z m 733 219 l 119 219 l 100 0 l 733 0 z "},"¤":{"ha":833,"x_min":0,"x_max":0,"o":"m 74 640 l 157 557 b 153 542 156 550 154 544 b 142 497 147 522 143 507 b 140 463 140 488 140 476 b 142 426 140 449 140 436 b 153 385 143 417 147 403 b 157 369 154 382 156 376 l 74 286 l 239 119 l 324 204 b 417 186 358 192 389 186 b 510 204 443 186 474 192 l 594 119 l 760 286 l 675 369 l 681 385 b 692 426 686 403 690 417 b 694 463 693 436 694 447 b 692 499 694 476 693 489 b 681 542 690 508 686 524 b 675 557 679 544 678 550 l 760 640 l 594 807 l 510 722 b 494 726 503 725 499 725 b 451 738 475 732 461 736 b 417 740 442 739 431 740 b 339 726 396 740 369 736 l 324 722 l 239 807 z m 417 567 b 490 536 446 567 471 556 b 521 463 510 517 521 492 b 490 390 521 433 510 410 b 417 360 471 371 446 360 b 344 390 389 360 365 369 b 314 463 324 411 314 433 b 343 536 314 492 324 517 b 417 567 363 556 388 567 z "},"¥":{"ha":833,"x_min":0,"x_max":0,"o":"m 196 569 l 79 569 l 79 350 l 750 350 l 750 569 l 636 569 l 796 926 l 542 926 l 415 569 l 293 926 l 38 926 z m 539 219 l 288 219 l 288 0 l 539 0 z "},"¦":{"ha":224,"x_min":0,"x_max":0,"o":"m 0 926 l 0 433 l 225 433 l 225 926 z m 0 213 l 0 -232 l 225 -232 l 225 213 z "},"§":{"ha":832,"x_min":0,"x_max":0,"o":"m 178 653 b 200 618 185 639 192 628 b 121 449 147 569 121 513 b 140 364 121 419 128 392 b 193 292 153 336 171 311 b 243 260 206 281 221 269 b 338 224 265 250 296 238 b 403 196 369 213 392 204 b 419 164 414 188 419 176 b 410 135 419 154 417 144 b 394 121 406 128 400 124 b 364 118 389 118 378 118 l 165 118 l 165 -101 l 392 -101 b 625 -7 497 -101 574 -69 b 682 160 663 39 682 94 b 638 301 682 213 667 258 b 682 353 657 317 672 335 b 713 469 703 389 713 428 b 671 600 713 518 699 561 b 615 653 658 618 639 636 z m 406 513 b 438 500 418 513 429 508 b 451 468 446 492 451 481 b 438 438 451 457 446 446 b 406 425 429 429 418 425 b 375 438 393 425 383 429 b 361 468 367 446 361 457 b 375 500 361 481 367 492 b 406 513 383 508 393 513 z m 669 789 l 669 1010 l 435 1010 b 342 996 404 1010 372 1004 b 258 958 311 988 283 974 b 192 894 229 939 206 918 b 157 789 178 871 167 835 z "},"¨":{"ha":694,"x_min":0,"x_max":0,"o":"m 550 1185 l 369 1185 l 369 989 l 550 989 z m 324 1185 l 144 1185 l 144 989 l 324 989 z "},"©":{"ha":1058,"x_min":0,"x_max":0,"o":"m 686 722 l 615 722 b 468 697 557 722 507 714 b 368 617 429 681 394 653 b 318 461 335 571 318 518 b 367 310 318 404 333 354 b 467 229 393 274 426 247 b 608 203 507 211 553 203 l 686 203 l 686 333 l 633 333 b 558 344 603 333 578 338 b 508 381 539 351 522 363 b 479 463 489 404 479 432 b 510 547 479 494 489 524 b 558 582 524 564 540 575 b 628 593 576 589 600 593 l 686 593 z m 531 947 b 329 903 461 947 393 932 b 163 778 265 874 210 831 b 76 632 126 736 97 688 b 46 463 56 576 46 519 b 76 294 46 404 57 349 b 163 147 96 240 125 192 b 328 24 208 94 264 53 b 531 -21 392 -6 460 -21 b 697 10 588 -21 643 -10 b 843 94 751 29 799 57 b 968 261 896 140 939 197 b 1013 463 997 325 1013 392 b 982 631 1013 519 1001 576 b 897 778 963 685 935 735 b 732 903 851 832 796 874 b 531 947 668 932 601 947 z m 531 857 b 781 763 624 857 708 825 b 881 628 824 725 857 681 b 915 463 904 575 915 521 b 881 299 915 404 904 351 b 781 164 857 246 824 201 b 664 93 746 133 707 110 b 531 69 621 76 576 69 b 397 93 485 69 440 76 b 279 164 354 110 314 133 b 179 297 236 201 203 244 b 143 463 156 350 143 404 b 179 629 143 521 156 576 b 279 763 203 682 236 725 b 531 857 351 825 436 857 z "},"ª":{"ha":554,"x_min":0,"x_max":0,"o":"m 499 482 l 57 482 l 57 392 l 499 392 z m 428 926 l 297 926 b 164 889 242 926 197 914 b 110 824 140 872 122 850 b 90 740 97 797 90 769 b 129 629 90 699 103 661 b 201 574 150 603 174 585 b 303 556 229 563 263 556 l 428 556 l 428 785 l 317 785 l 317 647 b 236 674 282 647 254 656 b 207 740 217 692 207 714 b 236 810 207 767 217 790 b 269 829 246 819 257 825 b 319 836 282 833 299 836 l 428 836 z "},"«":{"ha":861,"x_min":0,"x_max":0,"o":"m 490 725 l 228 725 l 46 438 l 228 157 l 490 157 l 310 438 z m 806 725 l 543 725 l 361 438 l 543 157 l 806 157 l 624 438 z "},"¬":{"ha":601,"x_min":0,"x_max":0,"o":"m 383 0 l 601 0 l 601 406 l 0 406 l 0 211 l 383 211 z "},"®":{"ha":1058,"x_min":0,"x_max":0,"o":"m 333 722 l 333 593 l 518 593 b 553 585 535 593 546 590 b 564 560 560 579 564 571 b 557 538 564 551 563 544 b 542 529 553 533 549 531 b 513 526 535 528 525 526 l 333 526 l 333 397 l 463 397 b 529 382 494 397 518 392 b 547 329 540 372 547 356 l 547 203 l 701 203 l 701 344 b 629 456 701 406 678 442 b 701 500 660 464 685 478 b 726 582 718 522 726 549 b 693 672 726 618 715 647 b 631 711 676 690 656 704 b 522 722 606 718 569 722 z m 531 947 b 329 903 461 947 393 932 b 163 778 265 874 210 831 b 76 632 126 736 97 688 b 46 463 56 576 46 519 b 76 294 46 404 57 349 b 163 147 96 240 125 192 b 328 24 208 94 264 53 b 531 -21 392 -6 460 -21 b 697 10 588 -21 643 -10 b 843 94 751 29 799 57 b 968 261 896 140 939 197 b 1013 463 997 325 1013 392 b 982 631 1013 519 1001 576 b 897 778 963 685 935 735 b 732 903 851 832 796 874 b 531 947 668 932 601 947 z m 531 857 b 781 763 624 857 708 825 b 881 628 824 725 857 681 b 915 463 904 575 915 521 b 881 299 915 404 904 351 b 781 164 857 246 824 201 b 664 93 746 133 707 110 b 531 69 621 76 576 69 b 397 93 485 69 440 76 b 279 164 354 110 314 133 b 179 297 236 201 203 244 b 143 463 156 350 143 404 b 179 629 143 521 156 576 b 279 763 203 682 236 725 b 531 857 351 825 436 857 z "},"°":{"ha":517,"x_min":0,"x_max":0,"o":"m 258 926 b 169 907 228 926 197 919 b 97 853 142 894 118 876 b 60 789 81 835 68 813 b 46 715 51 765 46 740 b 97 578 46 664 64 618 b 169 522 117 554 142 535 b 258 503 197 510 228 503 b 347 522 289 503 319 510 b 419 578 375 535 400 554 b 469 715 453 618 469 664 b 419 853 469 767 453 813 b 347 907 400 876 375 894 b 258 926 319 919 289 926 z m 258 801 b 319 776 282 801 303 793 b 346 715 336 760 346 739 b 319 653 346 692 336 669 b 258 628 303 636 282 628 b 196 653 233 628 213 636 b 171 715 179 669 171 692 b 196 776 171 739 179 760 b 258 801 213 793 233 801 z "},"±":{"ha":833,"x_min":0,"x_max":0,"o":"m 106 692 l 106 472 l 296 472 l 296 271 l 538 271 l 538 472 l 728 472 l 728 692 l 538 692 l 538 894 l 296 894 l 296 692 z m 106 219 l 106 0 l 728 0 l 728 219 z "},"²":{"ha":549,"x_min":0,"x_max":0,"o":"m 67 926 l 67 786 l 249 786 b 294 778 269 786 285 783 b 310 751 304 772 310 764 b 258 715 310 728 293 715 l 192 715 b 131 707 167 715 147 713 b 89 676 114 701 100 690 b 67 606 74 658 67 635 l 67 576 l 261 576 b 367 590 306 576 340 582 b 438 636 393 599 417 614 b 483 751 468 668 483 707 b 435 869 483 799 467 838 b 365 913 415 890 392 904 b 261 926 339 921 303 926 z m 461 511 l 67 511 l 67 372 l 461 372 z "},"³":{"ha":547,"x_min":0,"x_max":0,"o":"m 210 715 l 110 576 l 247 576 b 294 568 269 576 285 574 b 308 543 304 563 308 554 b 299 519 308 533 306 526 b 285 513 294 515 290 514 b 257 511 279 511 269 511 l 65 511 l 65 372 l 276 372 b 374 388 315 372 347 378 b 442 435 400 397 424 413 b 482 549 469 467 482 504 b 425 669 482 600 464 639 b 271 715 386 700 335 715 z m 475 926 l 65 926 l 65 786 l 371 786 z "},"´":{"ha":694,"x_min":0,"x_max":0,"o":"m 528 1186 l 314 1186 l 240 990 l 419 990 z "},"µ":{"ha":615,"x_min":0,"x_max":0,"o":"m 0 -237 l 181 -237 l 181 68 b 225 13 196 42 210 24 b 304 -14 249 -4 275 -14 b 389 17 336 -14 365 -4 b 414 44 399 25 407 35 b 435 89 421 54 426 69 l 435 0 l 615 0 l 615 667 l 435 667 l 435 326 b 431 261 435 300 435 279 b 411 203 426 243 419 222 b 371 157 403 183 389 168 b 310 139 353 146 332 139 b 203 200 264 139 229 160 b 185 246 193 214 188 229 b 181 321 182 263 181 288 l 181 667 l 0 667 z "},"¶":{"ha":833,"x_min":0,"x_max":0,"o":"m 307 -101 l 453 -101 l 453 838 l 556 838 l 556 -101 l 701 -101 l 701 838 l 807 838 l 807 1010 l 361 1010 b 128 961 257 1010 179 993 b 51 879 93 939 68 913 b 26 760 35 846 26 807 b 96 581 26 682 50 622 b 183 532 119 560 147 544 b 292 514 219 519 254 514 l 307 514 z "},"¸":{"ha":694,"x_min":0,"x_max":0,"o":"m 492 -64 l 276 -64 l 203 -260 l 383 -260 z "},"¹":{"ha":549,"x_min":0,"x_max":0,"o":"m 393 926 l 226 926 l 117 785 l 224 785 l 224 371 l 393 371 z "},"º":{"ha":554,"x_min":0,"x_max":0,"o":"m 499 482 l 57 482 l 57 392 l 499 392 z m 278 933 b 133 878 219 933 171 915 b 76 739 96 840 76 794 b 133 601 76 683 94 638 b 281 549 172 565 221 549 b 424 603 339 549 386 567 b 479 743 461 639 479 686 b 431 871 479 794 463 836 b 363 917 413 890 390 906 b 278 933 335 928 307 933 z m 278 843 b 340 815 304 843 325 833 b 363 740 356 797 363 772 b 340 665 363 708 356 683 b 279 638 325 647 306 638 b 215 665 251 638 231 647 b 193 742 200 683 193 710 b 215 817 193 774 200 799 b 278 843 231 835 251 843 z "},"»":{"ha":861,"x_min":0,"x_max":0,"o":"m 371 725 l 551 438 l 371 157 l 633 157 l 815 438 l 633 725 z m 56 725 l 238 438 l 56 157 l 318 157 l 500 438 l 318 725 z "},"¼":{"ha":1336,"x_min":0,"x_max":0,"o":"m 393 926 l 226 926 l 117 785 l 224 785 l 224 371 l 393 371 z m 722 926 l 451 0 l 624 0 l 896 926 z m 1204 556 l 1021 556 l 835 204 l 1283 204 l 1283 344 l 1094 344 z m 1235 139 l 1017 139 l 1017 0 l 1235 0 z "},"½":{"ha":1338,"x_min":0,"x_max":0,"o":"m 393 926 l 226 926 l 117 785 l 224 785 l 224 371 l 393 371 z m 722 926 l 451 0 l 624 0 l 896 926 z m 856 556 l 856 417 l 1038 417 b 1083 408 1058 417 1074 414 b 1099 379 1093 403 1099 392 b 1046 344 1099 356 1081 344 l 981 344 b 918 335 956 344 935 340 b 878 306 901 329 889 319 b 856 233 863 288 856 263 l 856 204 l 1050 204 b 1156 218 1094 204 1129 210 b 1226 264 1182 226 1206 242 b 1272 379 1257 296 1272 335 b 1224 499 1272 426 1256 467 b 1154 543 1204 519 1181 535 b 1050 556 1128 551 1092 556 z m 1249 139 l 856 139 l 856 0 l 1249 0 z "},"¾":{"ha":1336,"x_min":0,"x_max":0,"o":"m 210 715 l 110 576 l 247 576 b 294 568 269 576 285 574 b 308 543 304 563 308 554 b 299 519 308 533 306 526 b 285 513 294 515 290 514 b 257 511 279 511 269 511 l 65 511 l 65 372 l 276 372 b 374 388 315 372 347 378 b 442 435 400 397 424 413 b 482 549 469 467 482 504 b 425 669 482 600 464 639 b 271 715 386 700 335 715 z m 475 926 l 65 926 l 65 786 l 371 786 z m 722 926 l 451 0 l 624 0 l 896 926 z m 1204 556 l 1021 556 l 835 204 l 1283 204 l 1283 344 l 1094 344 z m 1235 139 l 1017 139 l 1017 0 l 1235 0 z "},"¿":{"ha":661,"x_min":0,"x_max":0,"o":"m 204 579 l 108 374 b 78 297 94 344 83 318 b 69 233 72 276 69 254 b 119 92 69 181 86 133 b 218 22 146 61 178 38 b 365 0 258 7 308 0 l 564 0 l 564 222 l 403 222 b 354 225 381 222 365 224 b 329 236 343 226 336 231 b 310 278 317 247 310 261 b 325 329 310 289 315 306 l 438 579 z m 214 706 l 432 706 l 432 926 l 214 926 z "},"À":{"ha":833,"x_min":0,"x_max":0,"o":"m 563 926 l 289 926 l 539 219 l 301 219 l 400 569 l 169 569 l -18 0 l 853 0 z m 236 1186 l 344 990 l 524 990 l 451 1186 z "},"Á":{"ha":833,"x_min":0,"x_max":0,"o":"m 563 926 l 289 926 l 539 219 l 301 219 l 400 569 l 169 569 l -18 0 l 853 0 z m 599 1186 l 383 1186 l 310 990 l 490 990 z "},"Â":{"ha":833,"x_min":0,"x_max":0,"o":"m 563 926 l 289 926 l 539 219 l 301 219 l 400 569 l 169 569 l -18 0 l 853 0 z m 506 1185 l 325 1185 l 206 989 l 376 989 l 417 1067 l 463 989 l 629 989 z "},"Ã":{"ha":833,"x_min":0,"x_max":0,"o":"m 563 926 l 289 926 l 539 219 l 301 219 l 400 569 l 169 569 l -18 0 l 853 0 z m 249 1142 l 249 992 b 286 1024 263 1007 275 1018 b 326 1032 297 1029 310 1032 b 378 1022 342 1032 360 1029 l 419 1008 b 497 992 449 997 475 992 b 586 1021 529 992 560 1001 l 586 1174 b 513 1135 564 1147 540 1135 b 439 1153 497 1135 472 1142 b 381 1172 411 1163 392 1169 b 344 1176 369 1175 357 1176 b 294 1168 326 1176 308 1174 b 249 1142 281 1163 265 1154 z "},"Ä":{"ha":833,"x_min":0,"x_max":0,"o":"m 563 926 l 289 926 l 539 219 l 301 219 l 400 569 l 169 569 l -18 0 l 853 0 z m 621 1185 l 440 1185 l 440 989 l 621 989 z m 394 1185 l 214 1185 l 214 989 l 394 989 z "},"Å":{"ha":833,"x_min":0,"x_max":0,"o":"m 563 926 l 289 926 l 539 219 l 301 219 l 400 569 l 169 569 l -18 0 l 853 0 z m 417 1254 b 318 1213 378 1254 346 1240 b 276 1114 290 1185 276 1153 b 318 1014 276 1075 290 1042 b 417 972 346 986 378 972 b 517 1014 456 972 489 986 b 558 1114 544 1042 558 1075 b 517 1213 558 1153 544 1185 b 417 1254 489 1240 456 1254 z m 417 1154 b 449 1143 429 1154 440 1151 b 461 1114 457 1135 461 1125 b 449 1085 461 1103 457 1093 b 417 1072 440 1076 429 1072 b 386 1085 404 1072 394 1076 b 374 1114 378 1093 374 1103 b 386 1142 374 1125 378 1133 b 417 1154 394 1150 404 1154 z "},"Æ":{"ha":1274,"x_min":0,"x_max":0,"o":"m 331 926 l 407 706 l 1169 706 l 1169 926 z m 215 571 l 28 0 l 1169 0 l 1169 219 l 828 219 l 786 350 l 1169 350 l 1169 571 l 457 571 l 585 219 l 347 219 l 443 571 z "},"Ç":{"ha":685,"x_min":0,"x_max":0,"o":"m 658 926 l 543 926 b 346 900 469 926 403 917 b 224 839 303 888 263 868 b 124 736 185 810 151 776 b 60 604 96 697 75 653 b 38 460 44 556 38 508 b 58 318 38 411 44 365 b 121 190 72 271 93 229 b 290 47 165 126 222 78 b 533 0 358 17 439 0 l 658 0 l 658 219 l 575 219 b 442 240 521 219 476 226 b 351 310 407 254 378 278 b 299 461 317 354 299 404 b 354 619 299 522 318 574 b 440 686 379 650 407 672 b 564 706 474 700 514 706 l 658 706 z m 524 -64 l 310 -64 l 236 -260 l 415 -260 z "},"È":{"ha":733,"x_min":0,"x_max":0,"o":"m 679 569 l 56 569 l 56 0 l 679 0 l 679 219 l 308 219 l 308 350 l 679 350 z m 679 926 l 56 926 l 56 706 l 679 706 z m 186 1186 l 294 990 l 474 990 l 401 1186 z "},"É":{"ha":733,"x_min":0,"x_max":0,"o":"m 679 569 l 56 569 l 56 0 l 679 0 l 679 219 l 308 219 l 308 350 l 679 350 z m 679 926 l 56 926 l 56 706 l 679 706 z m 549 1186 l 333 1186 l 261 990 l 439 990 z "},"Ê":{"ha":733,"x_min":0,"x_max":0,"o":"m 679 569 l 56 569 l 56 0 l 679 0 l 679 219 l 308 219 l 308 350 l 679 350 z m 679 926 l 56 926 l 56 706 l 679 706 z m 457 1185 l 276 1185 l 156 989 l 326 989 l 367 1067 l 413 989 l 579 989 z "},"Ë":{"ha":733,"x_min":0,"x_max":0,"o":"m 679 569 l 56 569 l 56 0 l 679 0 l 679 219 l 308 219 l 308 350 l 679 350 z m 679 926 l 56 926 l 56 706 l 679 706 z m 571 1185 l 390 1185 l 390 989 l 571 989 z m 344 1185 l 164 1185 l 164 989 l 344 989 z "},"Ì":{"ha":363,"x_min":0,"x_max":0,"o":"m 308 569 l 56 569 l 56 0 l 308 0 z m 308 926 l 56 926 l 56 706 l 308 706 z m 1 1186 l 111 990 l 290 990 l 217 1186 z "},"Í":{"ha":365,"x_min":0,"x_max":0,"o":"m 308 569 l 56 569 l 56 0 l 308 0 z m 308 926 l 56 926 l 56 706 l 308 706 z m 364 1186 l 149 1186 l 76 990 l 256 990 z "},"Î":{"ha":365,"x_min":0,"x_max":0,"o":"m 308 569 l 56 569 l 56 0 l 308 0 z m 308 926 l 56 926 l 56 706 l 308 706 z m 272 1185 l 92 1185 l -29 989 l 142 989 l 182 1067 l 229 989 l 394 989 z "},"Ï":{"ha":365,"x_min":0,"x_max":0,"o":"m 308 569 l 56 569 l 56 0 l 308 0 z m 308 926 l 56 926 l 56 706 l 308 706 z m 368 1175 l 213 1175 l 213 1004 l 368 1004 z m 153 1175 l -1 1175 l -1 1004 l 153 1004 z "},"Ð":{"ha":907,"x_min":0,"x_max":0,"o":"m 75 926 l 75 706 l 329 706 b 453 692 381 706 421 701 b 536 639 485 682 511 664 b 590 558 558 617 578 590 b 608 463 603 526 608 494 b 590 368 608 431 603 399 b 538 289 578 338 560 311 b 450 236 513 265 483 247 b 329 219 417 225 376 219 l 75 219 l 75 0 l 369 0 b 576 29 449 0 518 10 b 686 88 614 42 651 61 b 779 182 721 114 751 146 b 871 460 840 263 871 356 b 825 665 871 532 856 600 b 699 829 794 731 753 785 b 558 901 658 861 611 885 b 381 926 506 918 447 926 z m 450 569 l 38 569 l 38 350 l 450 350 z "},"Ñ":{"ha":839,"x_min":0,"x_max":0,"o":"m 56 926 l 56 0 l 308 0 l 308 706 l 431 706 b 515 681 474 706 501 697 b 532 611 526 667 532 643 l 532 0 l 785 0 l 785 624 b 768 754 785 675 779 718 b 717 844 757 790 740 821 b 610 908 686 876 650 899 b 457 926 565 919 515 926 z m 214 1142 l 214 992 b 250 1024 228 1007 239 1018 b 292 1032 261 1029 275 1032 b 344 1022 308 1032 326 1029 l 385 1008 b 463 992 414 997 440 992 b 551 1021 494 992 525 1001 l 551 1174 b 479 1135 529 1147 506 1135 b 406 1153 464 1135 439 1142 b 347 1172 378 1163 358 1169 b 310 1176 336 1175 322 1176 b 261 1168 292 1176 275 1174 b 214 1142 247 1163 231 1154 z "},"Ò":{"ha":1026,"x_min":0,"x_max":0,"o":"m 513 944 b 192 825 388 944 281 904 b 78 664 143 781 104 728 b 38 460 51 600 38 532 b 150 142 38 335 75 229 b 313 22 196 89 250 49 b 521 -18 375 -4 444 -18 b 726 24 597 -18 665 -4 b 883 146 788 51 839 92 b 963 289 918 188 944 235 b 990 458 981 343 990 400 b 944 683 990 543 975 617 b 813 847 914 750 871 804 b 672 919 771 878 725 903 b 513 944 619 936 567 944 z m 513 731 b 671 658 579 731 632 707 b 728 463 710 610 728 544 b 672 265 728 378 710 313 b 515 194 635 218 582 194 b 369 251 454 194 406 214 b 318 342 347 275 331 304 b 299 464 306 379 299 419 b 356 660 299 547 318 613 b 513 731 393 707 446 731 z m 332 1186 l 442 990 l 621 990 l 547 1186 z "},"Ó":{"ha":1026,"x_min":0,"x_max":0,"o":"m 513 944 b 192 825 388 944 281 904 b 78 664 143 781 104 728 b 38 460 51 600 38 532 b 150 142 38 335 75 229 b 313 22 196 89 250 49 b 521 -18 375 -4 444 -18 b 726 24 597 -18 665 -4 b 883 146 788 51 839 92 b 963 289 918 188 944 235 b 990 458 981 343 990 400 b 944 683 990 543 975 617 b 813 847 914 750 871 804 b 672 919 771 878 725 903 b 513 944 619 936 567 944 z m 513 731 b 671 658 579 731 632 707 b 728 463 710 610 728 544 b 672 265 728 378 710 313 b 515 194 635 218 582 194 b 369 251 454 194 406 214 b 318 342 347 275 331 304 b 299 464 306 379 299 419 b 356 660 299 547 318 613 b 513 731 393 707 446 731 z m 694 1186 l 479 1186 l 406 990 l 585 990 z "},"Ô":{"ha":1026,"x_min":0,"x_max":0,"o":"m 513 944 b 192 825 388 944 281 904 b 78 664 143 781 104 728 b 38 460 51 600 38 532 b 150 142 38 335 75 229 b 313 22 196 89 250 49 b 521 -18 375 -4 444 -18 b 726 24 597 -18 665 -4 b 883 146 788 51 839 92 b 963 289 918 188 944 235 b 990 458 981 343 990 400 b 944 683 990 543 975 617 b 813 847 914 750 871 804 b 672 919 771 878 725 903 b 513 944 619 936 567 944 z m 513 731 b 671 658 579 731 632 707 b 728 463 710 610 728 544 b 672 265 728 378 710 313 b 515 194 635 218 582 194 b 369 251 454 194 406 214 b 318 342 347 275 331 304 b 299 464 306 379 299 419 b 356 660 299 547 318 613 b 513 731 393 707 446 731 z m 603 1185 l 422 1185 l 301 989 l 472 989 l 514 1067 l 558 989 l 725 989 z "},"Õ":{"ha":1026,"x_min":0,"x_max":0,"o":"m 513 944 b 192 825 388 944 281 904 b 78 664 143 781 104 728 b 38 460 51 600 38 532 b 150 142 38 335 75 229 b 313 22 196 89 250 49 b 521 -18 375 -4 444 -18 b 726 24 597 -18 665 -4 b 883 146 788 51 839 92 b 963 289 918 188 944 235 b 990 458 981 343 990 400 b 944 683 990 543 975 617 b 813 847 914 750 871 804 b 672 919 771 878 725 903 b 513 944 619 936 567 944 z m 513 731 b 671 658 579 731 632 707 b 728 463 710 610 728 544 b 672 265 728 378 710 313 b 515 194 635 218 582 194 b 369 251 454 194 406 214 b 318 342 347 275 331 304 b 299 464 306 379 299 419 b 356 660 299 547 318 613 b 513 731 393 707 446 731 z m 344 1142 l 344 992 b 382 1024 358 1007 371 1018 b 424 1032 393 1029 407 1032 b 475 1022 439 1032 456 1029 l 517 1008 b 593 992 546 997 571 992 b 682 1021 625 992 656 1001 l 682 1174 b 610 1135 660 1147 636 1135 b 536 1153 594 1135 569 1142 b 478 1172 508 1163 489 1169 b 440 1176 467 1175 453 1176 b 392 1168 422 1176 406 1174 b 344 1142 378 1163 361 1154 z "},"Ö":{"ha":1026,"x_min":0,"x_max":0,"o":"m 513 944 b 192 825 388 944 281 904 b 78 664 143 781 104 728 b 38 460 51 600 38 532 b 150 142 38 335 75 229 b 313 22 196 89 250 49 b 521 -18 375 -4 444 -18 b 726 24 597 -18 665 -4 b 883 146 788 51 839 92 b 963 289 918 188 944 235 b 990 458 981 343 990 400 b 944 683 990 543 975 617 b 813 847 914 750 871 804 b 672 919 771 878 725 903 b 513 944 619 936 567 944 z m 513 731 b 671 658 579 731 632 707 b 728 463 710 610 728 544 b 672 265 728 378 710 313 b 515 194 635 218 582 194 b 369 251 454 194 406 214 b 318 342 347 275 331 304 b 299 464 306 379 299 419 b 356 660 299 547 318 613 b 513 731 393 707 446 731 z m 717 1185 l 536 1185 l 536 989 l 717 989 z m 492 1185 l 311 1185 l 311 989 l 492 989 z "},"×":{"ha":833,"x_min":0,"x_max":0,"o":"m 256 786 l 92 622 l 254 463 l 92 300 l 256 138 l 417 299 l 578 138 l 742 300 l 581 463 l 742 622 l 578 786 l 417 625 z "},"Ø":{"ha":1118,"x_min":0,"x_max":0,"o":"m 811 976 l 757 901 b 653 933 718 917 682 928 b 553 943 624 939 589 943 b 390 917 496 943 442 935 b 250 840 339 899 292 874 b 124 674 196 796 153 740 b 79 458 94 607 79 536 b 111 276 79 393 89 332 b 174 163 124 243 144 206 l 114 76 l 278 -42 l 331 32 b 446 -10 378 11 415 -3 b 556 -21 476 -17 513 -21 b 763 19 632 -21 701 -7 b 922 139 824 46 878 86 b 1031 457 994 225 1031 332 b 989 671 1031 533 1017 604 b 963 725 981 692 972 710 b 921 782 953 740 939 758 l 974 857 z m 553 729 b 642 710 585 729 614 722 b 713 656 669 697 693 679 b 769 453 750 608 769 540 b 753 335 769 407 764 367 b 701 250 742 303 725 274 b 557 193 665 211 617 193 b 406 256 493 193 443 214 b 357 346 385 279 368 310 b 340 465 346 382 340 422 b 360 589 340 511 347 551 b 411 675 372 626 389 654 b 475 715 429 692 450 706 b 553 729 500 725 525 729 z "},"Ù":{"ha":840,"x_min":0,"x_max":0,"o":"m 785 926 l 533 926 l 533 219 l 415 219 b 364 224 393 219 376 221 b 333 238 351 226 342 231 b 314 272 324 246 318 258 b 308 338 310 286 308 308 l 308 926 l 56 926 l 56 308 b 85 136 56 232 65 175 b 138 63 97 108 115 83 b 210 19 160 42 183 28 b 351 0 249 7 296 0 l 785 0 z m 239 1186 l 347 990 l 528 990 l 454 1186 z "},"Ú":{"ha":840,"x_min":0,"x_max":0,"o":"m 785 926 l 533 926 l 533 219 l 415 219 b 364 224 393 219 376 221 b 333 238 351 226 342 231 b 314 272 324 246 318 258 b 308 338 310 286 308 308 l 308 926 l 56 926 l 56 308 b 85 136 56 232 65 175 b 138 63 97 108 115 83 b 210 19 160 42 183 28 b 351 0 249 7 296 0 l 785 0 z m 601 1186 l 386 1186 l 314 990 l 493 990 z "},"Û":{"ha":840,"x_min":0,"x_max":0,"o":"m 785 926 l 533 926 l 533 219 l 415 219 b 364 224 393 219 376 221 b 333 238 351 226 342 231 b 314 272 324 246 318 258 b 308 338 310 286 308 308 l 308 926 l 56 926 l 56 308 b 85 136 56 232 65 175 b 138 63 97 108 115 83 b 210 19 160 42 183 28 b 351 0 249 7 296 0 l 785 0 z m 510 1185 l 329 1185 l 208 989 l 379 989 l 419 1067 l 465 989 l 632 989 z "},"Ü":{"ha":840,"x_min":0,"x_max":0,"o":"m 785 926 l 533 926 l 533 219 l 415 219 b 364 224 393 219 376 221 b 333 238 351 226 342 231 b 314 272 324 246 318 258 b 308 338 310 286 308 308 l 308 926 l 56 926 l 56 308 b 85 136 56 232 65 175 b 138 63 97 108 115 83 b 210 19 160 42 183 28 b 351 0 249 7 296 0 l 785 0 z m 624 1185 l 443 1185 l 443 989 l 624 989 z m 397 1185 l 217 1185 l 217 989 l 397 989 z "},"Ý":{"ha":790,"x_min":0,"x_max":0,"o":"m 764 926 l 511 926 l 511 703 b 471 576 511 640 497 599 b 394 550 450 560 425 550 b 318 578 364 550 339 560 b 289 622 304 589 294 604 b 281 694 283 640 281 664 l 281 926 l 28 926 l 28 744 b 39 601 28 690 32 643 b 74 503 44 567 56 535 b 142 418 92 471 114 443 b 394 331 207 360 290 331 b 653 424 501 331 589 363 b 717 507 679 447 699 475 b 751 604 735 539 746 572 b 764 765 760 649 764 703 z m 604 219 l 181 219 l 181 0 l 604 0 z m 578 1186 l 363 1186 l 289 990 l 468 990 z "},"Þ":{"ha":743,"x_min":0,"x_max":0,"o":"m 56 926 l 56 594 l 344 594 b 429 579 385 594 413 590 b 454 526 446 568 454 551 b 428 471 454 503 446 483 b 397 460 419 465 410 463 b 342 456 385 457 365 456 l 56 456 l 56 0 l 308 0 l 308 236 l 389 236 b 535 256 449 236 497 243 b 638 322 572 268 607 290 b 696 415 663 349 682 381 b 717 524 710 450 717 486 b 694 635 717 563 708 599 b 636 728 681 671 661 701 b 531 794 606 760 571 782 b 369 814 490 807 436 814 l 308 814 l 308 926 z "},"÷":{"ha":833,"x_min":0,"x_max":0,"o":"m 417 890 b 317 847 376 890 343 876 b 282 756 293 821 282 790 b 321 660 282 718 294 686 b 417 621 347 633 379 621 b 511 660 454 621 485 633 b 551 756 538 686 551 718 b 515 847 551 790 539 821 b 471 879 503 861 489 871 b 417 890 453 888 435 890 z m 417 303 b 321 264 379 303 347 290 b 282 168 294 238 282 206 b 321 72 282 131 294 99 b 417 33 347 46 379 33 b 511 72 454 33 485 46 b 551 168 538 99 551 131 b 513 264 551 206 539 238 b 417 303 486 290 454 303 z m 106 572 l 106 351 l 728 351 l 728 572 z "},"ÿ":{"ha":790,"x_min":0,"x_max":0,"o":"m 764 926 l 511 926 l 511 703 b 471 576 511 640 497 599 b 394 550 450 560 425 550 b 318 578 364 550 339 560 b 289 622 304 589 294 604 b 281 694 283 640 281 664 l 281 926 l 28 926 l 28 744 b 39 601 28 690 32 643 b 74 503 44 567 56 535 b 142 418 92 471 114 443 b 394 331 207 360 290 331 b 653 424 501 331 589 363 b 717 507 679 447 699 475 b 751 604 735 539 746 572 b 764 765 760 649 764 703 z m 604 219 l 181 219 l 181 0 l 604 0 z m 599 1185 l 418 1185 l 418 989 l 599 989 z m 374 1185 l 193 1185 l 193 989 l 374 989 z "},"Ā":{"ha":833,"x_min":0,"x_max":0,"o":"m 563 926 l 289 926 l 539 219 l 301 219 l 400 569 l 169 569 l -18 0 l 853 0 z "},"ā":{"ha":757,"x_min":0,"x_max":0,"o":"m 56 926 l 56 706 l 372 706 b 436 690 401 706 422 700 b 458 643 450 681 458 664 b 442 599 458 625 451 611 b 411 579 435 590 425 583 b 357 575 397 575 379 575 l 56 575 l 56 354 l 357 354 b 428 336 392 354 415 349 b 446 289 439 324 446 308 b 426 239 446 269 439 253 b 357 219 414 226 390 219 l 56 219 l 56 0 l 394 0 b 504 4 438 0 474 1 b 592 28 535 7 564 15 b 661 76 619 40 642 57 b 713 158 683 99 700 126 b 731 257 725 190 731 224 b 678 410 731 319 713 369 b 640 443 667 424 653 435 b 590 468 628 451 611 460 b 651 508 617 482 636 494 b 690 557 667 522 681 539 b 719 681 710 592 719 633 b 697 788 719 719 711 754 b 638 868 683 821 664 847 b 497 921 599 899 551 917 b 361 926 461 924 417 926 z "},"Ă":{"ha":685,"x_min":0,"x_max":0,"o":"m 658 926 l 543 926 b 346 900 469 926 403 917 b 224 839 303 888 263 868 b 124 736 185 810 151 776 b 60 604 96 697 75 653 b 38 460 44 556 38 508 b 58 318 38 411 44 365 b 121 190 72 271 93 229 b 290 47 165 126 222 78 b 533 0 358 17 439 0 l 658 0 l 658 219 l 575 219 b 442 240 521 219 476 226 b 351 310 407 254 378 278 b 299 461 317 354 299 404 b 354 619 299 522 318 574 b 440 686 379 650 407 672 b 564 706 474 700 514 706 l 658 706 z "},"ă":{"ha":886,"x_min":0,"x_max":0,"o":"m 56 926 l 56 706 l 307 706 b 432 690 358 706 400 700 b 515 639 464 681 490 664 b 568 558 538 617 556 590 b 588 463 581 526 588 494 b 568 368 588 431 581 400 b 517 288 556 336 539 310 b 429 235 492 264 463 246 b 308 218 396 224 356 218 l 308 569 l 56 569 l 56 0 l 349 0 b 554 29 428 0 496 10 b 664 89 592 42 628 63 b 758 183 700 115 731 147 b 850 461 819 265 850 358 b 804 667 850 533 835 601 b 676 829 774 732 731 786 b 538 901 636 861 590 885 b 360 926 485 918 426 926 z "},"Ą":{"ha":733,"x_min":0,"x_max":0,"o":"m 679 569 l 56 569 l 56 0 l 679 0 l 679 219 l 308 219 l 308 350 l 679 350 z m 679 926 l 56 926 l 56 706 l 679 706 z "},"ą":{"ha":708,"x_min":0,"x_max":0,"o":"m 681 569 l 56 569 l 56 0 l 308 0 l 308 350 l 681 350 z m 681 926 l 56 926 l 56 706 l 681 706 z "},"Ć":{"ha":832,"x_min":0,"x_max":0,"o":"m 832 567 l 832 58 z m 832 347 l 776 347 z m 832 347 l 832 567 z m 776 926 l 583 926 b 349 899 492 926 413 917 b 240 846 311 888 276 871 b 143 757 204 821 172 790 b 64 618 108 715 82 669 b 36 458 46 567 36 514 b 74 268 36 393 49 329 b 181 113 99 207 135 156 b 333 15 225 69 275 38 b 521 -18 392 -7 454 -18 b 718 0 617 -18 683 -12 b 832 58 764 15 801 35 l 832 347 b 769 276 813 319 792 296 b 711 231 747 257 729 242 b 557 194 672 206 621 194 b 393 250 493 194 439 214 b 324 339 364 274 340 303 b 299 456 307 375 299 414 b 314 547 299 488 304 518 b 358 626 324 576 339 604 b 443 688 382 654 410 675 b 569 706 476 700 519 706 l 776 706 z m 832 567 l 496 567 l 496 347 l 832 347 z "},"ć":{"ha":632,"x_min":0,"x_max":0,"o":"m 0 924 l 0 0 l 253 0 l 253 347 l 378 347 l 378 0 l 632 0 l 632 924 l 378 924 l 378 567 l 253 567 l 253 924 z "},"Ĉ":{"ha":363,"x_min":0,"x_max":0,"o":"m 308 569 l 56 569 l 56 0 l 308 0 z m 308 926 l 56 926 l 56 706 l 308 706 z "},"ĉ":{"ha":496,"x_min":0,"x_max":0,"o":"m 440 569 l 188 569 l 188 333 b 183 276 188 308 186 289 b 165 244 181 264 174 254 b 101 222 151 231 129 222 l -11 222 l -11 0 l 168 0 b 353 63 244 0 306 21 b 404 125 374 81 390 101 b 431 197 418 149 426 172 b 440 356 438 236 440 289 z m 440 926 l 188 926 l 188 706 l 440 706 z "},"Ċ":{"ha":632,"x_min":0,"x_max":0,"o":"m 0 0 l 253 0 l 253 289 l 378 0 l 633 0 l 443 492 l 633 924 l 378 924 l 251 661 l 253 924 l 0 924 z "},"ċ":{"ha":615,"x_min":0,"x_max":0,"o":"m 308 926 l 56 926 l 56 0 l 625 0 l 625 219 l 308 219 z "},"Č":{"ha":1119,"x_min":0,"x_max":0,"o":"m 56 926 l 56 0 l 308 0 l 308 706 l 703 706 b 756 701 725 706 742 704 b 789 683 769 699 781 692 b 807 651 799 675 804 664 b 813 594 810 639 813 619 l 813 0 l 1065 0 l 1065 606 b 1051 742 1065 661 1061 706 b 1007 833 1042 778 1028 807 b 893 910 975 874 936 900 b 713 926 849 921 789 926 z m 678 569 l 443 569 l 443 0 l 678 0 z "},"č":{"ha":839,"x_min":0,"x_max":0,"o":"m 56 926 l 56 0 l 308 0 l 308 706 l 431 706 b 515 681 474 706 501 697 b 532 611 526 667 532 643 l 532 0 l 785 0 l 785 624 b 768 754 785 675 779 718 b 717 844 757 790 740 821 b 610 908 686 876 650 899 b 457 926 565 919 515 926 z "},"Ď":{"ha":1026,"x_min":0,"x_max":0,"o":"m 513 944 b 192 825 388 944 281 904 b 78 664 143 781 104 728 b 38 460 51 600 38 532 b 150 142 38 335 75 229 b 313 22 196 89 250 49 b 521 -18 375 -4 444 -18 b 726 24 597 -18 665 -4 b 883 146 788 51 839 92 b 963 289 918 188 944 235 b 990 458 981 343 990 400 b 944 683 990 543 975 617 b 813 847 914 750 871 804 b 672 919 771 878 725 903 b 513 944 619 936 567 944 z m 513 731 b 671 658 579 731 632 707 b 728 463 710 610 728 544 b 672 265 728 378 710 313 b 515 194 635 218 582 194 b 369 251 454 194 406 214 b 318 342 347 275 331 304 b 299 464 306 379 299 419 b 356 660 299 547 318 613 b 513 731 393 707 446 731 z "},"ď":{"ha":743,"x_min":0,"x_max":0,"o":"m 56 926 l 56 706 l 344 706 b 429 690 385 706 413 700 b 454 639 446 681 454 663 b 428 585 454 615 446 597 b 397 574 419 579 410 576 b 342 569 385 571 365 569 l 56 569 l 56 0 l 308 0 l 308 350 l 389 350 b 535 369 449 350 497 357 b 638 436 572 382 607 404 b 696 528 663 463 682 493 b 717 636 710 563 717 599 b 694 746 717 674 708 710 b 636 839 681 782 661 813 b 531 906 606 871 571 893 b 369 926 490 918 436 926 z "},"Đ":{"ha":963,"x_min":0,"x_max":0,"o":"m 513 231 l 801 231 b 878 328 838 269 863 301 b 935 526 915 390 935 457 b 910 664 935 572 926 618 b 838 788 893 710 868 750 b 681 904 794 838 742 878 b 476 944 619 931 550 944 b 279 906 404 944 339 931 b 128 794 219 881 169 843 b 54 667 96 757 72 714 b 28 519 36 619 28 569 b 43 400 28 475 33 435 b 194 165 65 324 115 246 l 356 0 l 699 0 l 401 311 b 314 428 363 351 333 390 b 285 536 294 465 285 503 b 299 607 285 561 289 583 b 340 669 308 631 322 651 b 479 731 378 710 424 731 b 618 672 533 731 581 711 b 674 529 656 633 674 586 b 663 456 674 504 671 479 b 625 376 654 432 642 406 b 513 231 606 343 568 294 z "},"đ":{"ha":717,"x_min":0,"x_max":0,"o":"m 28 926 l 28 706 l 339 706 b 407 689 372 706 394 700 b 428 638 421 676 428 658 b 413 593 428 621 422 606 b 383 575 406 585 396 579 b 328 569 371 571 353 569 l 28 569 l 28 350 l 244 350 b 325 342 278 350 304 347 b 371 314 346 336 361 326 b 396 219 388 294 396 264 l 396 0 l 649 0 l 649 246 b 614 382 649 303 638 349 b 569 424 601 400 586 414 b 496 449 553 433 528 442 b 588 481 535 457 565 468 b 644 532 610 493 628 510 b 690 679 674 572 690 621 b 675 765 690 710 685 738 b 635 838 665 793 651 817 b 572 889 618 858 597 875 b 493 915 547 903 521 911 b 347 926 451 922 404 926 z "},"Ē":{"ha":644,"x_min":0,"x_max":0,"o":"m 326 926 l 65 926 b 56 839 58 890 56 861 b 78 740 56 810 64 776 b 118 671 86 719 100 696 b 197 572 136 646 163 613 b 338 403 272 488 318 431 b 365 319 357 375 365 346 b 340 256 365 296 357 275 b 236 219 319 232 285 219 l 10 219 l 10 0 l 265 0 b 553 110 394 0 490 36 b 608 206 576 138 596 169 b 628 318 621 242 628 279 b 617 404 628 349 624 378 b 579 492 610 431 596 461 b 522 575 565 518 546 546 b 397 724 499 604 457 656 b 335 806 368 757 346 785 b 318 867 324 826 318 847 b 326 926 318 881 321 901 z "},"ē":{"ha":663,"x_min":0,"x_max":0,"o":"m 333 569 l 81 569 l 81 326 b 96 179 81 269 86 221 b 157 72 106 139 126 104 b 244 17 182 47 210 28 b 369 0 279 6 321 0 l 607 0 l 607 222 l 442 222 b 381 229 414 222 393 225 b 349 251 368 233 357 240 b 333 339 339 267 333 296 z m 635 926 l 38 926 l 38 706 l 635 706 z "},"Ĕ":{"ha":840,"x_min":0,"x_max":0,"o":"m 785 926 l 533 926 l 533 219 l 415 219 b 364 224 393 219 376 221 b 333 238 351 226 342 231 b 314 272 324 246 318 258 b 308 338 310 286 308 308 l 308 926 l 56 926 l 56 308 b 85 136 56 232 65 175 b 138 63 97 108 115 83 b 210 19 160 42 183 28 b 351 0 249 7 296 0 l 785 0 z "},"ĕ":{"ha":835,"x_min":0,"x_max":0,"o":"m 854 922 l 585 926 l 460 493 b 413 267 444 442 429 367 b 367 501 393 379 378 458 l 250 926 l -18 926 l 271 0 l 547 0 z "},"Ė":{"ha":1108,"x_min":0,"x_max":0,"o":"m 1128 926 l 865 926 l 746 549 l 614 939 l 456 668 l 746 -15 z m 257 926 l -18 926 l 385 -15 l 536 240 z "},"ė":{"ha":821,"x_min":0,"x_max":0,"o":"m 793 926 l 765 926 b 724 925 750 926 736 925 b 610 906 685 924 646 918 b 514 857 574 893 542 876 b 457 804 492 840 472 824 b 408 724 442 785 425 758 b 369 792 393 753 381 776 b 85 926 306 878 211 924 l 28 926 l 28 703 b 144 679 76 699 117 690 b 219 625 172 668 197 650 b 267 549 239 603 256 578 b 283 458 278 519 283 489 b 236 313 283 404 268 356 b 169 251 218 288 196 268 b 86 221 143 235 115 225 b 28 218 68 218 49 218 l 28 0 b 100 1 57 0 82 0 b 219 24 142 3 181 11 b 319 75 258 36 292 53 b 367 122 338 89 354 106 b 408 193 379 139 393 164 b 489 85 435 146 461 110 b 589 25 517 60 549 40 b 754 0 633 8 689 0 l 793 0 l 793 218 b 683 236 751 218 715 224 b 600 294 651 249 624 268 b 553 371 579 317 564 342 b 536 460 542 400 536 429 b 558 560 536 494 543 528 b 618 643 574 592 592 621 b 692 686 642 664 667 678 b 793 703 717 694 750 700 z "},"Ę":{"ha":790,"x_min":0,"x_max":0,"o":"m 764 926 l 511 926 l 511 703 b 471 576 511 640 497 599 b 394 550 450 560 425 550 b 318 578 364 550 339 560 b 289 622 304 589 294 604 b 281 694 283 640 281 664 l 281 926 l 28 926 l 28 744 b 39 601 28 690 32 643 b 74 503 44 567 56 535 b 142 418 92 471 114 443 b 394 331 207 360 290 331 b 653 424 501 331 589 363 b 717 507 679 447 699 475 b 751 604 735 539 746 572 b 764 765 760 649 764 703 z m 604 219 l 181 219 l 181 0 l 604 0 z "},"ę":{"ha":742,"x_min":0,"x_max":0,"o":"m 557 569 l 281 569 l 28 0 l 707 0 l 707 219 l 403 219 z m 714 926 l 57 926 l 57 706 l 617 706 z "},"Œ":{"ha":1336,"x_min":0,"x_max":0,"o":"m 1281 706 l 1281 926 l 543 926 b 292 881 443 926 360 911 b 124 736 224 850 169 801 b 60 604 96 697 75 653 b 38 461 44 556 38 508 b 60 321 38 414 44 368 b 121 193 75 274 94 232 b 290 47 167 128 222 79 b 533 0 358 15 439 0 l 1281 0 l 1281 219 l 910 219 l 910 350 l 1281 350 l 1281 569 l 658 569 l 658 219 l 575 219 b 443 240 521 219 478 226 b 351 311 408 254 378 278 b 299 463 317 356 299 406 b 354 619 299 522 318 574 b 440 686 379 650 407 672 b 564 706 474 700 514 706 z "},"Š":{"ha":644,"x_min":0,"x_max":0,"o":"m 326 926 l 65 926 b 56 839 58 890 56 861 b 78 740 56 810 64 776 b 118 671 86 719 100 696 b 197 572 136 646 163 613 b 338 403 272 488 318 431 b 365 319 357 375 365 346 b 340 256 365 296 357 275 b 236 219 319 232 285 219 l 10 219 l 10 0 l 265 0 b 553 110 394 0 490 36 b 608 206 576 138 596 169 b 628 318 621 242 628 279 b 617 404 628 349 624 378 b 579 492 610 431 596 461 b 522 575 565 518 546 546 b 397 724 499 604 457 656 b 335 806 368 757 346 785 b 318 867 324 826 318 847 b 326 926 318 881 321 901 z m 233 989 l 414 989 l 535 1185 l 364 1185 l 324 1107 l 278 1185 l 111 1185 z "},"ƒ":{"ha":835,"x_min":0,"x_max":0,"o":"m 807 1018 l 672 1018 b 550 1010 624 1018 582 1015 b 464 981 518 1004 490 994 b 361 874 413 953 379 917 b 326 738 350 846 338 801 l 313 663 l 128 663 l 128 442 l 269 442 l 251 347 l 507 347 l 525 442 l 750 442 l 750 663 l 568 663 b 581 735 574 697 576 721 b 599 771 585 749 590 761 b 631 793 608 781 619 789 b 681 799 642 797 658 799 l 807 799 z m -28 -185 l 107 -185 b 254 -171 168 -185 217 -181 b 354 -119 292 -161 325 -143 b 418 -37 381 -97 401 -71 b 458 96 435 -4 447 40 l 483 222 l 228 222 l 211 143 b 199 90 207 119 203 101 b 183 63 194 79 190 71 b 151 40 174 53 164 44 b 97 35 139 36 121 35 l -28 35 z "},"ˆ":{"ha":694,"x_min":0,"x_max":0,"o":"m 436 1185 l 256 1185 l 136 989 l 306 989 l 347 1067 l 393 989 l 558 989 z "},"ˇ":{"ha":694,"x_min":0,"x_max":0,"o":"m 258 989 l 439 989 l 558 1185 l 389 1185 l 347 1107 l 301 1185 l 136 1185 z "},"ˉ":{"ha":694,"x_min":0,"x_max":0,"o":"m 542 1165 l 153 1165 l 153 1011 l 542 1011 z "},"˘":{"ha":694,"x_min":0,"x_max":0,"o":"m 157 1181 b 179 1094 164 1143 169 1114 b 219 1042 189 1075 201 1057 b 347 996 257 1011 299 996 b 475 1042 396 996 438 1011 b 515 1094 493 1057 506 1075 b 538 1181 525 1114 531 1143 l 424 1181 b 392 1133 414 1158 403 1143 b 347 1121 381 1124 365 1121 b 303 1133 329 1121 314 1124 b 271 1181 292 1143 281 1158 z "},"˙":{"ha":693,"x_min":0,"x_max":0,"o":"m 436 1185 l 257 1185 l 257 989 l 436 989 z "},"˚":{"ha":694,"x_min":0,"x_max":0,"o":"m 347 1254 b 247 1213 308 1254 275 1240 b 206 1114 219 1185 206 1153 b 247 1014 206 1075 219 1042 b 347 972 275 986 308 972 b 446 1014 386 972 418 986 b 488 1114 474 1042 488 1075 b 447 1213 488 1153 475 1185 b 347 1254 419 1240 386 1254 z m 347 1154 b 378 1142 358 1154 369 1150 b 390 1114 386 1133 390 1125 b 378 1085 390 1103 386 1093 b 347 1072 369 1076 358 1072 b 317 1085 335 1072 325 1076 b 303 1114 308 1093 303 1103 b 317 1142 303 1125 308 1133 b 347 1154 325 1150 335 1154 z "},"˛":{"ha":694,"x_min":0,"x_max":0,"o":"m 522 0 b 458 -46 492 -17 471 -32 b 424 -119 436 -69 424 -94 b 463 -194 424 -150 438 -175 b 515 -221 476 -206 494 -214 b 581 -232 536 -228 558 -232 b 678 -218 604 -232 636 -226 l 678 -131 b 615 -142 649 -137 628 -142 b 583 -132 603 -142 592 -137 b 572 -108 575 -126 572 -118 b 660 0 572 -81 601 -44 z "},"˜":{"ha":694,"x_min":0,"x_max":0,"o":"m 178 1142 l 178 992 b 215 1024 192 1007 204 1018 b 257 1032 226 1029 240 1032 b 310 1022 272 1032 290 1029 l 350 1008 b 428 992 379 997 406 992 b 517 1021 461 992 490 1001 l 517 1174 b 443 1135 494 1147 471 1135 b 369 1153 428 1135 403 1142 b 311 1172 342 1163 322 1169 b 275 1176 300 1175 288 1176 b 225 1168 257 1176 239 1174 b 178 1142 211 1163 194 1154 z "},"˝":{"ha":694,"x_min":0,"x_max":0,"o":"m 385 1186 l 197 1186 l 124 990 l 276 990 z m 644 1186 l 458 1186 l 385 990 l 536 990 z "},"π":{"ha":817,"x_min":0,"x_max":0,"o":"m 101 0 l 297 0 l 297 511 l 519 511 l 519 0 l 717 0 l 717 511 l 817 511 l 817 665 l 0 665 l 0 511 l 101 511 z "},"–":{"ha":842,"x_min":0,"x_max":0,"o":"m 788 522 l 56 522 l 56 303 l 788 303 z "},"—":{"ha":1018,"x_min":0,"x_max":0,"o":"m 1018 522 l 0 522 l 0 303 l 1018 303 z "},"‘":{"ha":411,"x_min":0,"x_max":0,"o":"m 97 601 l 315 601 l 315 926 l 208 926 z "},"’":{"ha":411,"x_min":0,"x_max":0,"o":"m 315 926 l 97 926 l 97 601 l 204 601 z "},"‚":{"ha":411,"x_min":0,"x_max":0,"o":"m 315 149 l 97 149 l 97 -175 l 204 -175 z "},"“":{"ha":732,"x_min":0,"x_max":0,"o":"m 97 601 l 317 601 l 317 926 l 208 926 z m 417 601 l 636 601 l 636 926 l 528 926 z "},"”":{"ha":731,"x_min":0,"x_max":0,"o":"m 315 926 l 97 926 l 97 601 l 204 601 z m 635 926 l 417 926 l 417 601 l 524 601 z "},"„":{"ha":731,"x_min":0,"x_max":0,"o":"m 315 149 l 97 149 l 97 -175 l 204 -175 z m 635 149 l 417 149 l 417 -175 l 524 -175 z "},"†":{"ha":833,"x_min":0,"x_max":0,"o":"m 289 431 l 542 431 l 542 568 l 683 568 l 683 788 l 542 788 l 542 1010 l 289 1010 l 289 788 l 150 788 l 150 568 l 289 568 z m 289 -101 l 542 -101 l 542 306 l 289 306 z "},"‡":{"ha":833,"x_min":0,"x_max":0,"o":"m 542 568 l 683 568 l 683 788 l 542 788 l 542 1010 l 289 1010 l 289 788 l 150 788 l 150 568 l 289 568 l 289 340 l 150 340 l 150 119 l 289 119 l 289 -101 l 542 -101 l 542 119 l 683 119 l 683 340 l 542 340 z "},"•":{"ha":385,"x_min":0,"x_max":0,"o":"m 194 664 b 113 646 165 664 138 657 b 47 597 88 635 65 618 b 13 538 32 581 21 560 b 0 471 4 515 0 494 b 47 346 0 424 17 382 b 113 296 65 324 88 307 b 194 278 138 285 165 278 b 318 324 242 278 282 293 b 368 390 339 342 357 365 b 385 471 379 415 385 443 b 368 551 385 500 379 526 b 318 617 357 576 340 599 b 194 664 282 647 242 664 z "},"…":{"ha":1236,"x_min":0,"x_max":0,"o":"m 315 219 l 97 219 l 97 0 l 315 0 z m 726 219 l 510 219 l 510 0 l 726 0 z m 1139 219 l 922 219 l 922 0 l 1139 0 z "},"‰":{"ha":1835,"x_min":0,"x_max":0,"o":"m 261 936 b 83 861 186 936 126 911 b 18 657 40 811 18 743 b 83 453 18 571 40 503 b 260 378 126 403 186 378 b 421 436 325 378 379 397 b 501 656 475 485 501 558 b 422 874 501 750 475 822 b 261 936 379 915 325 936 z m 261 811 b 311 772 283 811 300 799 b 328 653 322 746 328 707 b 313 539 328 601 324 563 b 261 503 301 515 285 503 b 208 540 238 503 219 515 b 192 657 197 565 192 604 b 208 775 192 710 197 750 b 261 811 219 800 238 811 z m 694 926 l 422 0 l 596 0 l 867 926 z m 1021 549 b 843 474 946 549 886 524 b 779 268 800 424 779 354 b 843 64 779 182 800 114 b 1019 -11 886 14 946 -11 b 1181 47 1085 -11 1139 8 b 1261 267 1233 96 1261 169 b 1182 485 1261 361 1235 433 b 1021 549 1139 526 1085 549 z m 1021 424 b 1071 383 1043 424 1060 410 b 1088 264 1082 357 1088 317 b 1071 150 1088 213 1082 174 b 1021 114 1060 126 1044 114 b 969 151 997 114 981 126 b 953 268 958 176 953 215 b 969 386 953 321 958 361 b 1021 424 981 411 997 424 z m 1576 549 b 1399 474 1501 549 1442 524 b 1333 268 1356 424 1333 354 b 1399 64 1333 182 1356 114 b 1575 -11 1442 14 1501 -11 b 1751 63 1650 -11 1708 14 b 1817 267 1794 111 1817 181 b 1738 485 1817 361 1790 433 b 1576 549 1694 526 1640 549 z m 1576 424 b 1626 383 1599 424 1615 410 b 1643 264 1638 357 1643 317 b 1626 150 1643 213 1638 175 b 1576 114 1615 125 1600 114 b 1524 151 1553 114 1535 126 b 1507 268 1513 176 1507 215 b 1524 386 1507 321 1513 361 b 1576 424 1535 411 1553 424 z "},"‹":{"ha":547,"x_min":0,"x_max":0,"o":"m 490 725 l 228 725 l 46 438 l 228 157 l 490 157 l 310 438 z "},"›":{"ha":547,"x_min":0,"x_max":0,"o":"m 56 725 l 238 438 l 56 157 l 318 157 l 500 438 l 318 725 z "},"™":{"ha":1033,"x_min":0,"x_max":0,"o":"m 197 729 l 42 729 l 42 592 b 53 506 42 556 46 526 b 88 450 60 485 71 465 b 214 410 115 424 158 410 l 356 410 l 356 539 l 256 539 b 208 550 231 539 215 543 b 197 599 201 557 197 574 z m 374 926 l 17 926 l 17 796 l 374 796 z m 411 926 l 411 407 l 567 407 l 567 796 l 792 796 b 839 785 815 796 831 792 b 851 740 847 778 851 763 l 851 407 l 1007 407 l 1007 746 b 999 822 1007 776 1004 803 b 971 874 993 842 983 860 b 908 915 954 894 933 908 b 797 926 883 922 847 926 z m 782 729 l 636 729 l 636 406 l 782 406 z "},"Ω":{"ha":858,"x_min":0,"x_max":0,"o":"m 4 0 l 381 0 l 381 169 b 322 204 357 181 338 193 b 279 249 307 215 293 231 b 208 478 232 308 208 385 b 286 697 208 568 235 640 b 431 765 328 743 376 765 b 574 697 485 765 532 743 b 651 475 625 640 651 567 b 636 364 651 435 646 397 b 590 265 626 331 611 297 b 543 211 575 243 560 225 b 479 169 526 197 506 183 l 479 0 l 854 0 l 854 183 l 667 183 b 739 233 696 201 721 218 b 788 288 757 249 772 267 b 860 514 835 350 860 425 b 832 668 860 568 850 618 b 751 804 814 718 786 764 b 607 911 710 851 661 886 b 431 949 553 936 494 949 b 108 804 301 949 193 901 b 28 668 74 764 46 718 b 0 514 10 618 0 567 b 18 390 0 469 6 429 b 72 286 31 351 49 315 b 122 233 88 265 104 249 b 192 183 140 218 163 201 l 4 183 z "},"∂":{"ha":646,"x_min":0,"x_max":0,"o":"m 57 758 b 169 743 106 754 143 750 b 285 703 204 735 242 721 b 389 629 325 686 360 661 b 444 540 400 617 418 586 b 376 583 418 563 396 576 b 279 600 347 593 315 600 b 178 581 244 600 210 593 b 92 526 146 568 117 550 b 24 428 63 499 40 467 b 0 306 7 389 0 349 b 33 160 0 254 11 206 b 124 49 56 114 85 78 b 318 -11 178 8 243 -11 b 567 100 422 -11 506 25 b 628 215 594 133 615 172 b 647 369 640 258 647 310 b 503 749 647 525 599 651 b 329 865 453 799 396 838 b 81 922 263 893 179 913 z m 325 447 b 411 415 357 447 386 436 b 447 365 426 403 439 385 b 460 300 456 346 460 324 b 408 182 460 250 443 211 b 324 150 382 161 354 150 b 235 186 290 150 261 163 b 188 300 203 215 188 253 b 203 365 188 322 193 344 b 242 417 213 386 225 404 b 282 439 253 426 267 433 b 325 447 297 444 311 447 z "},"∆":{"ha":881,"x_min":0,"x_max":0,"o":"m 0 0 l 882 0 l 549 926 l 331 926 z m 268 183 l 440 704 l 608 183 z "},"∏":{"ha":875,"x_min":0,"x_max":0,"o":"m 0 1042 l 0 869 l 101 869 l 101 -175 l 0 -175 l 0 -347 l 375 -347 l 375 -175 l 282 -175 l 282 869 l 588 869 l 588 -175 l 500 -175 l 500 -347 l 876 -347 l 876 -175 l 776 -175 l 776 869 l 876 869 l 876 1042 z "},"∑":{"ha":832,"x_min":0,"x_max":0,"o":"m 819 1042 l 0 1042 l 0 818 l 322 369 l 0 -122 l 0 -347 l 832 -347 l 832 21 l 633 21 l 619 -153 l 238 -153 l 571 369 l 236 847 l 608 847 l 631 683 l 819 683 z "},"∕":{"ha":240,"x_min":0,"x_max":0,"o":"m 174 926 l -96 0 l 76 0 l 347 926 z "},"∙":{"ha":467,"x_min":0,"x_max":0,"o":"m 371 563 l 97 563 l 97 289 l 371 289 z "},"√":{"ha":925,"x_min":0,"x_max":0,"o":"m 926 1149 l 542 1149 l 406 618 b 364 443 386 542 372 483 b 333 278 356 403 344 349 b 319 183 328 243 322 211 l 308 183 l 306 203 b 281 382 296 294 289 353 l 243 524 l 0 524 l 0 353 l 124 353 l 204 0 l 450 0 l 696 976 l 926 976 z "},"∞":{"ha":876,"x_min":0,"x_max":0,"o":"m 442 376 b 542 283 471 336 506 304 b 656 251 578 263 615 251 b 815 313 721 251 774 272 b 878 471 857 353 878 406 b 819 626 878 535 858 586 b 747 675 800 647 775 664 b 660 692 719 686 690 692 b 538 661 617 692 575 682 b 435 568 500 640 465 610 b 371 635 415 593 394 615 b 297 678 344 654 321 668 b 221 692 274 688 249 692 b 69 636 163 692 111 672 b 0 474 22 596 0 542 b 67 308 0 404 22 349 b 219 251 108 271 158 251 b 442 376 303 251 376 293 z m 511 472 b 526 493 511 472 515 479 b 550 522 538 507 544 517 b 638 567 579 551 607 567 b 703 540 663 567 685 558 b 729 475 721 522 729 501 b 704 404 729 446 721 422 b 639 376 688 386 665 376 b 511 472 594 376 553 408 z m 367 471 b 351 449 367 469 363 463 b 328 421 340 435 333 426 b 240 376 299 392 271 376 b 175 403 214 376 193 385 b 147 468 157 421 147 443 b 174 539 147 497 157 521 b 239 567 190 557 213 567 b 367 471 283 567 325 535 z "},"∫":{"ha":579,"x_min":0,"x_max":0,"o":"m 0 -333 b 114 -346 29 -342 68 -346 b 365 -224 235 -346 318 -304 b 401 -86 385 -189 397 -143 b 403 96 403 -71 403 -11 l 403 711 b 404 771 403 740 403 760 b 413 801 406 782 408 793 b 483 842 425 829 449 842 b 544 829 501 842 522 839 l 579 1028 b 458 1042 531 1038 492 1042 b 213 915 342 1042 260 1000 b 179 776 193 881 182 835 b 178 679 178 764 178 731 l 178 604 l 178 53 l 178 -22 b 174 -89 178 -54 176 -76 b 156 -122 171 -101 165 -112 b 93 -146 140 -137 121 -146 b 35 -135 78 -146 57 -143 z "},"≈":{"ha":671,"x_min":0,"x_max":0,"o":"m 108 483 b 154 539 125 510 140 529 b 200 554 168 549 183 554 b 300 524 221 554 254 544 l 357 499 b 454 475 392 483 425 475 b 583 524 506 475 549 492 b 631 579 601 540 618 558 b 672 667 643 600 657 628 l 565 743 b 529 697 550 721 538 704 b 468 675 513 682 492 675 b 436 681 457 675 446 678 b 365 708 426 683 401 693 b 271 743 325 725 294 736 b 213 753 247 750 228 753 b 92 707 165 753 126 738 b 0 560 57 676 26 626 z m 108 174 b 154 229 125 200 140 219 b 200 244 168 239 183 244 b 300 214 221 244 254 233 b 399 175 347 193 381 181 b 454 167 417 169 435 167 b 583 214 506 167 549 182 b 629 269 601 231 617 249 b 672 357 642 290 657 319 l 565 433 b 529 389 550 411 538 396 b 469 365 513 374 492 365 b 436 371 458 365 447 368 b 365 399 425 374 401 383 b 271 433 326 415 294 426 b 213 443 247 440 228 443 b 92 397 165 443 126 428 b 0 250 57 367 26 317 z "},"≠":{"ha":601,"x_min":0,"x_max":0,"o":"m 310 671 l 0 671 l 0 488 l 235 488 l 178 379 l 0 379 l 0 197 l 111 197 l 65 115 l 203 42 l 286 197 l 601 197 l 601 379 l 354 379 l 410 488 l 603 488 l 603 671 l 486 671 l 544 778 l 406 851 z "},"≤":{"ha":601,"x_min":0,"x_max":0,"o":"m 601 904 l 0 679 l 0 493 l 601 267 l 601 475 l 242 585 l 601 696 z m 601 231 l 0 231 l 0 36 l 601 36 z "},"≥":{"ha":601,"x_min":0,"x_max":0,"o":"m 0 267 l 601 493 l 601 679 l 0 904 l 0 696 l 360 585 l 0 475 z m 0 36 l 601 36 l 601 231 l 0 231 z "},"◊":{"ha":721,"x_min":0,"x_max":0,"o":"m 361 963 l 0 463 l 361 -36 l 721 463 z m 361 839 l 635 463 l 361 88 l 86 463 z "}}}
